<?xml version="1.0" encoding="UTF-8"?>
<svg version="1.1" xmlns="http://www.w3.org/2000/svg" width="300" height="300">
<path d="M0 0 C5.87066991 7.25200401 7.92799294 14.72007058 7 24 C2.16729739 48.68679933 -14.51293451 69.07688288 -29.53125 88.453125 C-30.43617188 89.64325195 -30.43617188 89.64325195 -31.359375 90.85742188 C-32.34457969 92.14405228 -33.3493221 93.41653717 -34.390625 94.65820312 C-36.70087093 97.59743724 -36.99924115 99.02316863 -36.875 102.81640625 C-36.61153928 104.21654028 -36.3185669 105.61136687 -36 107 C-35.77376953 108.07870361 -35.77376953 108.07870361 -35.54296875 109.17919922 C-34.89082578 112.19668593 -34.17607984 115.19809227 -33.4609375 118.20117188 C-29.5658908 135.04579546 -30.80412655 151.18084117 -34 168 C-34.19335938 169.06992188 -34.38671875 170.13984375 -34.5859375 171.2421875 C-40.69110897 199.86513427 -60.9932139 224.26474636 -85 240 C-112.10615525 257.06247357 -144.01790589 260.68852815 -175 254 C-175.99 253.67 -176.98 253.34 -178 253 C-182.93921696 252.5070946 -184.96322647 252.30752813 -189.140625 255.09765625 C-190.19277154 256.06921858 -191.22841797 257.05884874 -192.25 258.0625 C-193.45700161 259.16979935 -194.66957445 260.27104677 -195.88671875 261.3671875 C-196.53946777 261.9559668 -197.1922168 262.54474609 -197.86474609 263.15136719 C-201.77280744 266.53483855 -205.91654149 269.60383867 -210.0625 272.6875 C-210.91545654 273.32268555 -211.76841309 273.95787109 -212.6472168 274.61230469 C-235.13848401 291.2564909 -235.13848401 291.2564909 -240.74682617 291.22705078 C-241.70759567 291.22689972 -242.66836517 291.22674866 -243.6582489 291.22659302 C-244.69270645 291.21627045 -245.727164 291.20594788 -246.79296875 291.1953125 C-248.38471672 291.19106766 -248.38471672 291.19106766 -250.00862122 291.18673706 C-253.40169497 291.17553184 -256.79450587 291.15042647 -260.1875 291.125 C-262.48632432 291.11497065 -264.78515276 291.10584472 -267.08398438 291.09765625 C-272.72274611 291.07559141 -278.36135428 291.04211044 -284 291 C-284.65936148 289.56063691 -285.31407313 288.11914312 -285.96679688 286.67675781 C-286.33188354 285.87425598 -286.69697021 285.07175415 -287.07312012 284.24493408 C-290.2743726 276.49139349 -287.74645047 267.42887678 -284.82666016 259.93701172 C-280.0247417 248.68526305 -273.6939674 238.15839779 -266.94140625 227.98828125 C-265.35726897 225.54992105 -263.95918498 223.14001149 -262.625 220.5625 C-261.06467726 217.60843702 -259.27175972 214.98104236 -257.25390625 212.328125 C-256.7522998 211.6673999 -256.25069336 211.0066748 -255.73388672 210.32592773 C-254.72151111 209.00779359 -253.69617955 207.69948567 -252.65673828 206.40258789 C-250.43181288 203.51384103 -249.10306735 201.6273312 -248.50390625 197.98046875 C-249.10728761 194.35542955 -250.28275117 191.37031414 -251.75 188 C-263.92753631 158.93278153 -264.78495991 126.24196461 -252.81933594 96.95507812 C-240.55653725 67.69390653 -217.99672856 46.43238387 -189 34 C-161.08560178 22.62636754 -131.0135534 23.69401045 -103 34 C-100.60741122 35.16105991 -98.27259254 36.32410945 -95.9921875 37.69140625 C-93.77944321 38.24227792 -93.77944321 38.24227792 -91.265625 36.48828125 C-90.16403376 35.67626587 -89.07657139 34.84490608 -88 34 C-87.08661865 33.29580933 -87.08661865 33.29580933 -86.15478516 32.57739258 C-84.05139528 30.93914046 -81.96379782 29.28180744 -79.875 27.625 C-22.63817278 -17.18319139 -22.63817278 -17.18319139 0 0 Z " fill="#9EC8C8" transform="translate(291,9)"/>
<path d="M0 0 C5.87066991 7.25200401 7.92799294 14.72007058 7 24 C2.16729739 48.68679933 -14.51293451 69.07688288 -29.53125 88.453125 C-30.43617188 89.64325195 -30.43617188 89.64325195 -31.359375 90.85742188 C-32.34457969 92.14405228 -33.3493221 93.41653717 -34.390625 94.65820312 C-36.70087093 97.59743724 -36.99924115 99.02316863 -36.875 102.81640625 C-36.61153928 104.21654028 -36.3185669 105.61136687 -36 107 C-35.77376953 108.07870361 -35.77376953 108.07870361 -35.54296875 109.17919922 C-34.89082578 112.19668593 -34.17607984 115.19809227 -33.4609375 118.20117188 C-29.5658908 135.04579546 -30.80412655 151.18084117 -34 168 C-34.19335938 169.06992188 -34.38671875 170.13984375 -34.5859375 171.2421875 C-40.69110897 199.86513427 -60.9932139 224.26474636 -85 240 C-112.10615525 257.06247357 -144.01790589 260.68852815 -175 254 C-175.99 253.67 -176.98 253.34 -178 253 C-182.93921696 252.5070946 -184.96322647 252.30752813 -189.140625 255.09765625 C-190.19277154 256.06921858 -191.22841797 257.05884874 -192.25 258.0625 C-193.45700161 259.16979935 -194.66957445 260.27104677 -195.88671875 261.3671875 C-196.53946777 261.9559668 -197.1922168 262.54474609 -197.86474609 263.15136719 C-201.77280744 266.53483855 -205.91654149 269.60383867 -210.0625 272.6875 C-210.91545654 273.32268555 -211.76841309 273.95787109 -212.6472168 274.61230469 C-235.13848401 291.2564909 -235.13848401 291.2564909 -240.74682617 291.22705078 C-241.70759567 291.22689972 -242.66836517 291.22674866 -243.6582489 291.22659302 C-244.69270645 291.21627045 -245.727164 291.20594788 -246.79296875 291.1953125 C-248.38471672 291.19106766 -248.38471672 291.19106766 -250.00862122 291.18673706 C-253.40169497 291.17553184 -256.79450587 291.15042647 -260.1875 291.125 C-262.48632432 291.11497065 -264.78515276 291.10584472 -267.08398438 291.09765625 C-272.72274611 291.07559141 -278.36135428 291.04211044 -284 291 C-284.65936148 289.56063691 -285.31407313 288.11914312 -285.96679688 286.67675781 C-286.33188354 285.87425598 -286.69697021 285.07175415 -287.07312012 284.24493408 C-290.2743726 276.49139349 -287.74645047 267.42887678 -284.82666016 259.93701172 C-280.0247417 248.68526305 -273.6939674 238.15839779 -266.94140625 227.98828125 C-265.35726897 225.54992105 -263.95918498 223.14001149 -262.625 220.5625 C-261.06467726 217.60843702 -259.27175972 214.98104236 -257.25390625 212.328125 C-256.7522998 211.6673999 -256.25069336 211.0066748 -255.73388672 210.32592773 C-254.72151111 209.00779359 -253.69617955 207.69948567 -252.65673828 206.40258789 C-250.43181288 203.51384103 -249.10306735 201.6273312 -248.50390625 197.98046875 C-249.10728761 194.35542955 -250.28275117 191.37031414 -251.75 188 C-263.92753631 158.93278153 -264.78495991 126.24196461 -252.81933594 96.95507812 C-240.55653725 67.69390653 -217.99672856 46.43238387 -189 34 C-161.08560178 22.62636754 -131.0135534 23.69401045 -103 34 C-100.60741122 35.16105991 -98.27259254 36.32410945 -95.9921875 37.69140625 C-93.77944321 38.24227792 -93.77944321 38.24227792 -91.265625 36.48828125 C-90.16403376 35.67626587 -89.07657139 34.84490608 -88 34 C-87.08661865 33.29580933 -87.08661865 33.29580933 -86.15478516 32.57739258 C-84.05139528 30.93914046 -81.96379782 29.28180744 -79.875 27.625 C-22.63817278 -17.18319139 -22.63817278 -17.18319139 0 0 Z M-30.9375 16.3125 C-31.89922119 16.84447998 -31.89922119 16.84447998 -32.88037109 17.38720703 C-45.34799631 24.44463852 -56.76863864 33.15023659 -68 42 C-69.1885003 42.93007327 -70.37731067 43.85975042 -71.56640625 44.7890625 C-72.16509521 45.25795898 -72.76378418 45.72685547 -73.38061523 46.20996094 C-74.57328879 47.14398822 -75.76679482 48.07695362 -76.96118164 49.00878906 C-79.66610236 51.12763728 -82.31835177 53.27250911 -84.9296875 55.5078125 C-85.79851562 56.24773437 -86.66734375 56.98765625 -87.5625 57.75 C-88.30628906 58.40484375 -89.05007812 59.0596875 -89.81640625 59.734375 C-92 61 -92 61 -94.5078125 60.87109375 C-97.10739616 59.96246184 -99.03499929 58.85375714 -101.3125 57.3125 C-115.73263716 48.42043919 -131.00735776 45.90007905 -147.75 45.75 C-148.61326904 45.74049316 -149.47653809 45.73098633 -150.3659668 45.72119141 C-156.4589579 45.75261958 -162.07031409 46.64810821 -168 48 C-169.13308594 48.22300781 -170.26617187 48.44601563 -171.43359375 48.67578125 C-193.99525409 53.45803175 -214.38162982 68.54208313 -227.12109375 87.68457031 C-240.93752812 109.45405899 -245.98297663 135.24110032 -240.6171875 160.63671875 C-240.41351563 161.41660156 -240.20984375 162.19648438 -240 163 C-239.72542969 164.06154297 -239.72542969 164.06154297 -239.4453125 165.14453125 C-237.07987606 173.01471791 -233.35313532 180.51286223 -230 188 C-229.34 188 -228.68 188 -228 188 C-226.18124845 192.00125341 -225.22567758 195.59928713 -225 200 C-226.52734375 202.68359375 -226.52734375 202.68359375 -228.9375 205.4375 C-256.19829524 238.07689625 -256.19829524 238.07689625 -269 277 C-268.02658738 278.20650599 -268.02658738 278.20650599 -266.22583008 278.01953125 C-260.28507915 277.47742894 -255.86650546 275.903951 -250.6875 273 C-249.58293457 272.3965979 -249.58293457 272.3965979 -248.45605469 271.78100586 C-241.84705111 268.08413948 -235.91008783 263.72647078 -230 259 C-228.40214487 257.78830961 -226.80423883 256.57668068 -225.20361328 255.36865234 C-219.01209148 250.67665412 -213.06151098 245.73717785 -207.16015625 240.6875 C-203.21205354 237.31351164 -199.18074001 234.04531365 -195.14453125 230.77734375 C-192.96529769 229.02744291 -192.96529769 229.02744291 -191 227 C-186.00927587 226.26965013 -182.80646453 227.89705228 -178.43359375 229.9765625 C-172.60279978 232.4286781 -166.30103666 233.33163351 -160 233 C-160 233.66 -160 234.32 -160 235 C-152.41 235 -144.82 235 -137 235 C-137 234.34 -137 233.68 -137 233 C-136.2471875 232.99742187 -135.494375 232.99484375 -134.71875 232.9921875 C-116.32491132 232.32250891 -98.55780464 223.101933 -85 211 C-83.87851562 210.00226563 -83.87851562 210.00226563 -82.734375 208.984375 C-70.98745994 197.89463002 -62.2435459 183.86783013 -57.25 168.5625 C-56.94707031 167.68529297 -56.64414063 166.80808594 -56.33203125 165.90429688 C-53.2986663 156.75701635 -52.82818462 147.88624595 -52.875 138.3125 C-52.87113281 137.51005859 -52.86726562 136.70761719 -52.86328125 135.88085938 C-52.87100566 131.14965617 -53.21297162 126.66595399 -54 122 C-54.66 122 -55.32 122 -56 122 C-55.92652344 120.85917969 -55.85304687 119.71835938 -55.77734375 118.54296875 C-55.77624334 113.5459882 -57.46870632 109.77527166 -59.5625 105.3125 C-62.99860385 97.9549669 -62.99860385 97.9549669 -63.00390625 94.328125 C-61.62908491 91.13982337 -59.70304925 89.01620942 -57.375 86.4375 C-28.07891687 54.30217876 -28.07891687 54.30217876 -15 15 C-16.90926712 12.67064034 -16.90926712 12.67064034 -20.19140625 12.66796875 C-24.40190331 13.03503772 -27.33626709 14.25869472 -30.9375 16.3125 Z " fill="#F6FAFA" transform="translate(291,9)"/>
<path d="M0 0 C2 2 2 2 2.4375 4.875 C1.5951757 26.46510188 -23.01320071 51.69403393 -35.67578125 67.78125 C-36.47943115 68.81185547 -36.47943115 68.81185547 -37.29931641 69.86328125 C-38.50872463 71.38276744 -39.74892622 72.87796357 -41.00927734 74.35546875 C-41.65977051 75.13535156 -42.31026367 75.91523437 -42.98046875 76.71875 C-43.58141357 77.41935547 -44.1823584 78.11996094 -44.80151367 78.84179688 C-46.2429568 80.96303658 -46.2429568 80.96303658 -45.77685547 83.54956055 C-44.50701438 87.55502724 -42.80668798 91.38119215 -41.08398438 95.20898438 C-39.04796384 100.01557038 -38.72789307 103.78365225 -39 109 C-38.34 109 -37.68 109 -37 109 C-32.78071486 134.31571086 -38.21119451 160.03226787 -53 181 C-55.83463072 184.83336071 -58.81562956 188.45313556 -62 192 C-62.68449219 192.77859375 -63.36898437 193.5571875 -64.07421875 194.359375 C-76.45381794 207.63140371 -96.98034307 218.799208 -115.29296875 220.171875 C-116.86297477 220.18440998 -118.43358068 220.10680132 -120 220 C-120 220.66 -120 221.32 -120 222 C-127.59 222 -135.18 222 -143 222 C-143 221.34 -143 220.68 -143 220 C-143.94359375 219.92652344 -143.94359375 219.92652344 -144.90625 219.8515625 C-151.90727057 219.24002757 -158.15244484 218.27649024 -164.625 215.375 C-168.23225295 213.90537843 -170.15696436 213.55955133 -174 214 C-176.61699814 215.78204045 -176.61699814 215.78204045 -179 218.3125 C-183.17417916 222.32787887 -187.4146519 226.02492799 -192 229.5625 C-196.168668 232.7854018 -200.27809287 236.04590433 -204.3125 239.4375 C-235.82897186 265.26156945 -235.82897186 265.26156945 -251 265 C-252 264 -252 264 -252.28125 260.91015625 C-251.96075515 256.45438753 -250.58062435 253.29367321 -248.5 249.4375 C-248.13471191 248.73842529 -247.76942383 248.03935059 -247.39306641 247.3190918 C-246.27854385 245.2034164 -245.14201189 243.10093773 -244 241 C-243.39929688 239.87335938 -242.79859375 238.74671875 -242.1796875 237.5859375 C-232.10468055 219.31135779 -220.03601805 200.51349364 -206 185 C-204.68 185.66 -203.36 186.32 -202 187 C-203.46256659 190.15568555 -205.25580639 192.8249781 -207.3125 195.625 C-214.47128653 205.41966463 -214.47128653 205.41966463 -216 217 C-215.67 217.99 -215.34 218.98 -215 220 C-213.02 220 -211.04 220 -209 220 C-209 219.34 -209 218.68 -209 218 C-208.319375 217.70609375 -207.63875 217.4121875 -206.9375 217.109375 C-197.3011896 212.65001859 -189.26815159 206.59264036 -181 200 C-180.34628418 199.48083008 -179.69256836 198.96166016 -179.01904297 198.42675781 C-177.1670962 196.94463792 -175.33022968 195.4463235 -173.5 193.9375 C-172.9419165 193.48479736 -172.38383301 193.03209473 -171.80883789 192.56567383 C-170.47938736 191.44444793 -169.23080659 190.22869905 -168 189 C-168 188.01 -168 187.02 -168 186 C-167.68911632 184.32900023 -167.35919668 182.66128463 -167 181 C-164.33333333 181 -161.66666667 181 -159 181 C-156.96028937 179.52058343 -156.96028937 179.52058343 -154.8125 177.4375 C-153.47832031 176.19806641 -153.47832031 176.19806641 -152.1171875 174.93359375 C-151.62186523 174.46679199 -151.12654297 173.99999023 -150.61621094 173.51904297 C-148.88150745 171.88863132 -147.13300878 170.27391991 -145.3828125 168.66015625 C-138.01835889 161.84382391 -130.79582169 154.89565544 -123.6875 147.8125 C-122.96425537 147.09384766 -122.24101074 146.37519531 -121.49584961 145.63476562 C-120.48276733 144.61866211 -120.48276733 144.61866211 -119.44921875 143.58203125 C-118.55722778 142.68834839 -118.55722778 142.68834839 -117.6472168 141.77661133 C-113.89039363 137.72467681 -112.35269814 134.41079255 -111 129 C-110.154375 129 -109.30875 129 -108.4375 129 C-103.3103754 127.50847284 -101.27274486 124.05579424 -98 120 C-96.55029357 118.38803285 -95.09156582 116.78414383 -93.625 115.1875 C-89.37485207 110.4730502 -85.35247399 105.60532498 -81.36181641 100.67089844 C-79.79836588 98.75260238 -78.21855933 96.84847135 -76.63671875 94.9453125 C-54.42034034 70.77899862 -54.42034034 70.77899862 -42.25 41.5 C-42.1675 40.345 -42.085 39.19 -42 38 C-52.05042932 38.9525552 -58.98384666 42.85622115 -66.6953125 49.2265625 C-69 51 -69 51 -71 51 C-71 51.66 -71 52.32 -71 53 C-72.32 52.67 -73.64 52.34 -75 52 C-75 48 -75 48 -73.69335938 46.45117188 C-73.08298828 45.96197266 -72.47261719 45.47277344 -71.84375 44.96875 C-71.15901611 44.41155273 -70.47428223 43.85435547 -69.76879883 43.28027344 C-69.02009521 42.6927832 -68.2713916 42.10529297 -67.5 41.5 C-66.73260498 40.88415039 -65.96520996 40.26830078 -65.17456055 39.63378906 C-57.58245746 33.57878527 -49.83901711 27.7303698 -42 22 C-41.39027344 21.55140625 -40.78054687 21.1028125 -40.15234375 20.640625 C-32.01174585 14.66264814 -23.72786377 9.09125386 -15 4 C-14.2265625 3.54367188 -13.453125 3.08734375 -12.65625 2.6171875 C-8.31219902 0.22795946 -4.93912142 -0.59269457 0 0 Z " fill="#9EC9C8" transform="translate(274,22)"/>
<path d="M0 0 C5.87066991 7.25200401 7.92799294 14.72007058 7 24 C2.16729739 48.68679933 -14.51293451 69.07688288 -29.53125 88.453125 C-30.43617188 89.64325195 -30.43617188 89.64325195 -31.359375 90.85742188 C-32.34457969 92.14405228 -33.3493221 93.41653717 -34.390625 94.65820312 C-36.70087093 97.59743724 -36.99924115 99.02316863 -36.875 102.81640625 C-36.61153928 104.21654028 -36.3185669 105.61136687 -36 107 C-35.77376953 108.07870361 -35.77376953 108.07870361 -35.54296875 109.17919922 C-34.89082578 112.19668593 -34.17607984 115.19809227 -33.4609375 118.20117188 C-29.5658908 135.04579546 -30.80412655 151.18084117 -34 168 C-34.19335938 169.06992188 -34.38671875 170.13984375 -34.5859375 171.2421875 C-40.69110897 199.86513427 -60.9932139 224.26474636 -85 240 C-112.10615525 257.06247357 -144.01790589 260.68852815 -175 254 C-175.99 253.67 -176.98 253.34 -178 253 C-182.93921696 252.5070946 -184.96322647 252.30752813 -189.140625 255.09765625 C-190.19277154 256.06921858 -191.22841797 257.05884874 -192.25 258.0625 C-193.45700161 259.16979935 -194.66957445 260.27104677 -195.88671875 261.3671875 C-196.53946777 261.9559668 -197.1922168 262.54474609 -197.86474609 263.15136719 C-201.77280744 266.53483855 -205.91654149 269.60383867 -210.0625 272.6875 C-210.91545654 273.32268555 -211.76841309 273.95787109 -212.6472168 274.61230469 C-235.13848401 291.2564909 -235.13848401 291.2564909 -240.74682617 291.22705078 C-241.70759567 291.22689972 -242.66836517 291.22674866 -243.6582489 291.22659302 C-244.69270645 291.21627045 -245.727164 291.20594788 -246.79296875 291.1953125 C-248.38471672 291.19106766 -248.38471672 291.19106766 -250.00862122 291.18673706 C-253.40169497 291.17553184 -256.79450587 291.15042647 -260.1875 291.125 C-262.48632432 291.11497065 -264.78515276 291.10584472 -267.08398438 291.09765625 C-272.72274611 291.07559141 -278.36135428 291.04211044 -284 291 C-284.65936148 289.56063691 -285.31407313 288.11914312 -285.96679688 286.67675781 C-286.33188354 285.87425598 -286.69697021 285.07175415 -287.07312012 284.24493408 C-290.2743726 276.49139349 -287.74645047 267.42887678 -284.82666016 259.93701172 C-280.0247417 248.68526305 -273.6939674 238.15839779 -266.94140625 227.98828125 C-265.35726897 225.54992105 -263.95918498 223.14001149 -262.625 220.5625 C-261.06467726 217.60843702 -259.27175972 214.98104236 -257.25390625 212.328125 C-256.7522998 211.6673999 -256.25069336 211.0066748 -255.73388672 210.32592773 C-254.72151111 209.00779359 -253.69617955 207.69948567 -252.65673828 206.40258789 C-250.43181288 203.51384103 -249.10306735 201.6273312 -248.50390625 197.98046875 C-249.10728761 194.35542955 -250.28275117 191.37031414 -251.75 188 C-263.92753631 158.93278153 -264.78495991 126.24196461 -252.81933594 96.95507812 C-240.55653725 67.69390653 -217.99672856 46.43238387 -189 34 C-161.08560178 22.62636754 -131.0135534 23.69401045 -103 34 C-100.60741122 35.16105991 -98.27259254 36.32410945 -95.9921875 37.69140625 C-93.77944321 38.24227792 -93.77944321 38.24227792 -91.265625 36.48828125 C-90.16403376 35.67626587 -89.07657139 34.84490608 -88 34 C-87.08661865 33.29580933 -87.08661865 33.29580933 -86.15478516 32.57739258 C-84.05139528 30.93914046 -81.96379782 29.28180744 -79.875 27.625 C-22.63817278 -17.18319139 -22.63817278 -17.18319139 0 0 Z M-93 48 C-96.1413673 46.76015565 -99.25919399 45.47164202 -102.37109375 44.16015625 C-112.16813375 40.07765268 -121.46198575 36.614808 -132 35 C-132.77988281 34.87109375 -133.55976563 34.7421875 -134.36328125 34.609375 C-160.0352399 31.04252151 -187.48130849 37.93729921 -208.625 52.75 C-232.50296875 71.0178733 -248.0870792 95.32589568 -252.4921875 125.42578125 C-255.34953445 148.59250414 -251.77519962 173.28731067 -238.78515625 193.0703125 C-237.64144935 195.88121404 -237.99212261 197.1244641 -239 200 C-240.59121196 202.63953529 -242.41367437 205.08948161 -244.25 207.5625 C-269.54376304 239.44374853 -269.54376304 239.44374853 -280.390625 276.984375 C-279.3623719 282.290161 -276.29746222 284.99177645 -272 288 C-263.23501676 290.92166108 -256.04325534 287.68335992 -248 284 C-233.56451419 276.70464696 -220.27289734 266.45336895 -208 256 C-206.89630041 255.06975805 -205.79210814 254.14010042 -204.6875 253.2109375 C-204.12039307 252.73229248 -203.55328613 252.25364746 -202.96899414 251.76049805 C-201.8354425 250.80564863 -200.69926221 249.85390993 -199.56030273 248.90551758 C-197.25553227 246.97501721 -195.04328289 245.045618 -192.97265625 242.86328125 C-191.3125 241.125 -191.3125 241.125 -188 239 C-185.5324895 239.21889206 -183.54736656 239.97567851 -181.23046875 240.85546875 C-156.68900324 249.55032896 -127.56707812 248.21653958 -104.00341797 237.05419922 C-77.10757207 223.50642343 -57.50935205 202.18554483 -47.25 173.8125 C-39.77442541 150.07816748 -40.14557149 125.33532908 -49.109375 102.1015625 C-50.09912947 98.65478599 -50.30762053 97.31776659 -49 94 C-47.26840323 91.50200989 -45.30009245 89.23399254 -43.3125 86.9375 C-15.70719494 54.63305037 -15.70719494 54.63305037 -3.75 15.3984375 C-4.24668526 10.63336331 -6.04224241 7.88592577 -9.5 4.6875 C-31.78905608 -10.35761285 -77.55761464 33.94838848 -93 48 Z " fill="#3E636D" transform="translate(291,9)"/>
<path d="M0 0 C0.91023926 0.00604248 1.82047852 0.01208496 2.75830078 0.01831055 C12.70913023 0.16327672 22.77426703 0.54842559 31.75 5.25 C30.21787583 10.95647447 27.35050973 15.45960454 24.1875 20.375 C23.6502832 21.21667725 23.11306641 22.05835449 22.55957031 22.92553711 C18.24894767 29.61392587 13.68728352 36.006063 8.75 42.25 C8.11964844 43.06082031 7.48929687 43.87164062 6.83984375 44.70703125 C-0.7585668 54.36496992 -8.63315998 63.92238685 -17.47265625 72.47265625 C-19.26048049 74.26048049 -20.87534568 76.1261614 -22.5 78.0625 C-26.8309986 83.09236429 -31.77915092 87.44411162 -36.71240234 91.86523438 C-38.17873816 93.18582135 -39.63078323 94.5222251 -41.08203125 95.859375 C-50.17505299 104.23692293 -59.75885007 111.90014254 -69.5 119.5 C-70.63514038 120.38606934 -70.63514038 120.38606934 -71.79321289 121.29003906 C-84.62081963 131.25 -84.62081963 131.25 -87.25 131.25 C-88.59158036 126.91917021 -89.92486266 122.58589001 -91.25 118.25 C-91.47300781 117.52039063 -91.69601563 116.79078125 -91.92578125 116.0390625 C-98.58484606 93.57107283 -94.21195034 68.58127525 -83.25 48.25 C-75.1318935 34.29007039 -64.27392804 23.521556 -51.25 14.25 C-50.54101562 13.73566406 -49.83203125 13.22132812 -49.1015625 12.69140625 C-41.32914984 7.42781034 -32.01536065 4.20436042 -22.79248047 2.68969727 C-20.36951768 2.27066942 -17.98933169 1.75007409 -15.58984375 1.21484375 C-10.35320821 0.1640349 -5.32916135 -0.05724393 0 0 Z " fill="#10E1DB" transform="translate(143.25,54.75)"/>
<path d="M0 0 C2 2 2 2 2.4375 4.875 C1.41752799 31.01849316 -31.41863122 63.33772729 -47.4921875 82.0625 C-49.84887232 84.82297817 -52.15124342 87.618603 -54.4375 90.4375 C-62.68103941 100.5372974 -71.1987544 110.31813428 -80.13500977 119.81103516 C-83.5617262 123.45123484 -86.90912637 127.13683409 -90.17578125 130.921875 C-97.01616743 138.7143492 -104.11566463 146.26077696 -111.55078125 153.48828125 C-113.53181371 155.51986637 -115.38472542 157.57877948 -117.234375 159.7265625 C-121.26910935 164.37609283 -125.57499581 168.72208444 -129.9375 173.0625 C-130.69740234 173.82626953 -131.45730469 174.59003906 -132.24023438 175.37695312 C-136.43833477 179.56788341 -140.73006347 183.57301916 -145.22485352 187.44311523 C-147.59592586 189.52265427 -149.80047301 191.74102634 -152 194 C-155.4904144 197.52754647 -159.04644314 200.87384474 -162.81640625 204.09765625 C-165.00790059 206.00688299 -167.14328931 207.97006541 -169.2734375 209.94726562 C-174.40021774 214.70320009 -179.63800695 219.2360912 -185.08984375 223.62109375 C-187.8177737 225.85103917 -190.48558969 228.13426112 -193.14526367 230.44433594 C-199.87557869 236.28626037 -206.76233257 241.78963732 -214 247 C-215.02609375 247.75023437 -216.0521875 248.50046875 -217.109375 249.2734375 C-239.39579263 265.20007254 -239.39579263 265.20007254 -251 265 C-252 264 -252 264 -252.28125 260.91015625 C-251.96075515 256.45438753 -250.58062435 253.29367321 -248.5 249.4375 C-248.13471191 248.73842529 -247.76942383 248.03935059 -247.39306641 247.3190918 C-246.27854385 245.2034164 -245.14201189 243.10093773 -244 241 C-243.39929688 239.87335938 -242.79859375 238.74671875 -242.1796875 237.5859375 C-232.10468055 219.31135779 -220.03601805 200.51349364 -206 185 C-204.68 185.66 -203.36 186.32 -202 187 C-203.46256659 190.15568555 -205.25580639 192.8249781 -207.3125 195.625 C-214.47128653 205.41966463 -214.47128653 205.41966463 -216 217 C-215.67 217.99 -215.34 218.98 -215 220 C-213.02 220 -211.04 220 -209 220 C-209 219.34 -209 218.68 -209 218 C-208.319375 217.70609375 -207.63875 217.4121875 -206.9375 217.109375 C-197.3011896 212.65001859 -189.26815159 206.59264036 -181 200 C-180.34628418 199.48083008 -179.69256836 198.96166016 -179.01904297 198.42675781 C-177.1670962 196.94463792 -175.33022968 195.4463235 -173.5 193.9375 C-172.9419165 193.48479736 -172.38383301 193.03209473 -171.80883789 192.56567383 C-170.47938736 191.44444793 -169.23080659 190.22869905 -168 189 C-168 188.01 -168 187.02 -168 186 C-167.68911632 184.32900023 -167.35919668 182.66128463 -167 181 C-164.33333333 181 -161.66666667 181 -159 181 C-156.96028937 179.52058343 -156.96028937 179.52058343 -154.8125 177.4375 C-153.47832031 176.19806641 -153.47832031 176.19806641 -152.1171875 174.93359375 C-151.62186523 174.46679199 -151.12654297 173.99999023 -150.61621094 173.51904297 C-148.88150745 171.88863132 -147.13300878 170.27391991 -145.3828125 168.66015625 C-138.01835889 161.84382391 -130.79582169 154.89565544 -123.6875 147.8125 C-122.96425537 147.09384766 -122.24101074 146.37519531 -121.49584961 145.63476562 C-120.48276733 144.61866211 -120.48276733 144.61866211 -119.44921875 143.58203125 C-118.55722778 142.68834839 -118.55722778 142.68834839 -117.6472168 141.77661133 C-113.89039363 137.72467681 -112.35269814 134.41079255 -111 129 C-110.154375 129 -109.30875 129 -108.4375 129 C-103.3103754 127.50847284 -101.27274486 124.05579424 -98 120 C-96.55029357 118.38803285 -95.09156582 116.78414383 -93.625 115.1875 C-89.37485207 110.4730502 -85.35247399 105.60532498 -81.36181641 100.67089844 C-79.79836588 98.75260238 -78.21855933 96.84847135 -76.63671875 94.9453125 C-54.42034034 70.77899862 -54.42034034 70.77899862 -42.25 41.5 C-42.1675 40.345 -42.085 39.19 -42 38 C-52.05042932 38.9525552 -58.98384666 42.85622115 -66.6953125 49.2265625 C-69 51 -69 51 -71 51 C-71 51.66 -71 52.32 -71 53 C-72.32 52.67 -73.64 52.34 -75 52 C-75 48 -75 48 -73.69335938 46.45117188 C-73.08298828 45.96197266 -72.47261719 45.47277344 -71.84375 44.96875 C-71.15901611 44.41155273 -70.47428223 43.85435547 -69.76879883 43.28027344 C-69.02009521 42.6927832 -68.2713916 42.10529297 -67.5 41.5 C-66.73260498 40.88415039 -65.96520996 40.26830078 -65.17456055 39.63378906 C-57.58245746 33.57878527 -49.83901711 27.7303698 -42 22 C-41.39027344 21.55140625 -40.78054687 21.1028125 -40.15234375 20.640625 C-32.01174585 14.66264814 -23.72786377 9.09125386 -15 4 C-14.2265625 3.54367188 -13.453125 3.08734375 -12.65625 2.6171875 C-8.31219902 0.22795946 -4.93912142 -0.59269457 0 0 Z " fill="#077572" transform="translate(274,22)"/>
<path d="M0 0 C0.33 0 0.66 0 1 0 C5.47062726 24.54055037 1.3409352 47.87733802 -12.84277344 68.38476562 C-16.00669705 72.8009088 -19.37175619 76.9587337 -23 81 C-23.68449219 81.77859375 -24.36898437 82.5571875 -25.07421875 83.359375 C-39.28117794 98.59049576 -60.5201848 107.70840777 -81 110 C-84.81371363 110.11376791 -88.62254851 110.09476699 -92.4375 110.0625 C-93.45521484 110.05798828 -94.47292969 110.05347656 -95.52148438 110.04882812 C-98.01438509 110.03712437 -100.50716074 110.02072848 -103 110 C-100.00475717 106.80352931 -96.51302908 104.98307349 -92.6875 102.9375 C-72.27825097 91.72642687 -52.71710204 76.09929319 -38 58 C-37.02810214 56.85092062 -36.05535809 55.70255672 -35.08203125 54.5546875 C-26.51752502 44.34881057 -18.85532806 33.63796737 -12.3203125 22.01171875 C-11.66675781 21.01591797 -11.66675781 21.01591797 -11 20 C-10.34 20 -9.68 20 -9 20 C-8.896875 19.29875 -8.79375 18.5975 -8.6875 17.875 C-7.90640997 14.60862353 -6.57941257 11.9528148 -5 9 C-4.34 9 -3.68 9 -3 9 C-2.01 6.03 -1.02 3.06 0 0 Z " fill="#12E0DA" transform="translate(235,133)"/>
<path d="M0 0 C2.25 2.0625 2.25 2.0625 4 4 C4.99 4 5.98 4 7 4 C6.34 4.99 5.68 5.98 5 7 C2.93359375 7.328125 2.93359375 7.328125 0.4375 7.25 C-0.46613281 7.22421875 -1.36976563 7.1984375 -2.30078125 7.171875 C-4.63682957 7.02312518 -6.92910423 6.79609927 -9.25 6.5 C-35.56646109 3.38237046 -63.29566008 10.73546123 -84.3515625 26.8515625 C-106.97000331 45.19985519 -121.1754459 69.5343904 -124.76855469 98.66650391 C-127.0038309 121.20318113 -123.39289466 144.86953658 -110.78515625 164.0703125 C-109.6326851 166.90275403 -109.97099036 168.09745487 -111 171 C-112.71784894 173.82568466 -114.66030316 176.46710661 -116.625 179.125 C-117.71812421 180.6352888 -118.80927182 182.14701021 -119.8984375 183.66015625 C-120.42920898 184.39637207 -120.95998047 185.13258789 -121.50683594 185.89111328 C-124.51872844 190.14499285 -127.27517503 194.55776775 -130 199 C-130.33 198.01 -130.66 197.02 -131 196 C-130.505 195.01 -130.505 195.01 -130 194 C-130.99 193.67 -131.98 193.34 -133 193 C-133.495 193.99 -133.495 193.99 -134 195 C-133.45374745 191.13573775 -132.45481207 188.84923766 -130.05859375 185.78515625 C-129.47529297 185.01623047 -128.89199219 184.24730469 -128.29101562 183.45507812 C-127.05576007 181.86057017 -125.8161705 180.26941031 -124.57226562 178.68164062 C-121.12317556 174.16994917 -121.12317556 174.16994917 -119.42578125 168.84375 C-120.11606956 165.42517934 -121.27068619 162.59751935 -122.75 159.4375 C-135.3306093 131.48760444 -135.82822764 98.72149498 -125.03198242 70.09936523 C-119.39790685 56.072341 -111.65812264 44.6431112 -101 34 C-100.12601563 33.05511719 -99.25203125 32.11023438 -98.3515625 31.13671875 C-88.52261824 20.71688487 -76.93405552 13.96151885 -64 8 C-63.10539062 7.55914062 -62.21078125 7.11828125 -61.2890625 6.6640625 C-43.12045892 -1.73319126 -19.57850419 -4.09965994 0 0 Z " fill="#3E616E" transform="translate(164,38)"/>
<path d="M0 0 C5.87066991 7.25200401 7.92799294 14.72007058 7 24 C2.16729739 48.68679933 -14.51293451 69.07688288 -29.53125 88.453125 C-30.43617188 89.64325195 -30.43617188 89.64325195 -31.359375 90.85742188 C-32.34457969 92.14405228 -33.3493221 93.41653717 -34.390625 94.65820312 C-36.70087093 97.59743724 -36.99924115 99.02316863 -36.875 102.81640625 C-36.61153928 104.21654028 -36.3185669 105.61136687 -36 107 C-35.77376953 108.07870361 -35.77376953 108.07870361 -35.54296875 109.17919922 C-34.89082578 112.19668593 -34.17607984 115.19809227 -33.4609375 118.20117188 C-29.5658908 135.04579546 -30.80412655 151.18084117 -34 168 C-34.19335938 169.06992188 -34.38671875 170.13984375 -34.5859375 171.2421875 C-40.69110897 199.86513427 -60.9932139 224.26474636 -85 240 C-112.10615525 257.06247357 -144.01790589 260.68852815 -175 254 C-175.99 253.67 -176.98 253.34 -178 253 C-182.93921696 252.5070946 -184.96322647 252.30752813 -189.140625 255.09765625 C-190.19277154 256.06921858 -191.22841797 257.05884874 -192.25 258.0625 C-193.45700161 259.16979935 -194.66957445 260.27104677 -195.88671875 261.3671875 C-196.53946777 261.9559668 -197.1922168 262.54474609 -197.86474609 263.15136719 C-201.77280744 266.53483855 -205.91654149 269.60383867 -210.0625 272.6875 C-210.91545654 273.32268555 -211.76841309 273.95787109 -212.6472168 274.61230469 C-220.29925794 280.27503576 -228.07940507 285.71960338 -236 291 C-238.1875 290.625 -238.1875 290.625 -240 290 C-238.56333984 289.14341797 -238.56333984 289.14341797 -237.09765625 288.26953125 C-223.86550029 280.25966618 -211.70179075 271.09221202 -199.9375 261.0625 C-199.40793701 260.61165039 -198.87837402 260.16080078 -198.33276367 259.69628906 C-196.10584804 257.79835364 -193.88166836 255.89772341 -191.66796875 253.984375 C-188.60446534 251.4773397 -186.6979683 250.12080221 -182.75 249.4375 C-178.42577257 250.08613411 -174.27657249 251.08610305 -170.0625 252.24609375 C-147.94657733 257.69044716 -121.43776894 255.05044132 -101 245 C-99.8965625 244.49726563 -98.793125 243.99453125 -97.65625 243.4765625 C-68.98590706 229.96598054 -50.35765294 206.78283907 -38.90356445 177.58227539 C-30.85197552 154.57183062 -32.72171456 129.53149168 -38.68237305 106.34570312 C-40.27215485 99.70987919 -40.27215485 99.70987919 -38.97265625 96.3203125 C-38.34230469 95.59585938 -37.71195313 94.87140625 -37.0625 94.125 C-36.32128906 93.2175 -35.58007812 92.31 -34.81640625 91.375 C-34.3795752 90.85808594 -33.94274414 90.34117188 -33.49267578 89.80859375 C-30.36372442 86.01741421 -27.44932243 82.05633513 -24.5 78.125 C-23.84112793 77.2486792 -23.18225586 76.3723584 -22.50341797 75.46948242 C-17.56225232 68.85469615 -13.03036584 62.21831914 -9 55 C-8.58878906 54.26362305 -8.17757813 53.52724609 -7.75390625 52.76855469 C-6.38183664 50.29186962 -5.03079277 47.80490082 -3.6875 45.3125 C-3.26621826 44.540271 -2.84493652 43.76804199 -2.41088867 42.97241211 C2.96713464 32.77876608 6.30886573 21.85717419 3.30859375 10.34765625 C1.23475105 5.13267943 -1.29832616 2.04225954 -6 -1 C-16.15664414 -5.10172167 -26.17761145 -3.10153969 -36 1 C-53.86443357 9.80697789 -72.00119828 22.75792025 -86.50976562 36.421875 C-88.94126174 38.66730332 -90.60868595 39.93038618 -93.8984375 40.515625 C-97.78963376 39.86872587 -101.07999843 38.39762385 -104.625 36.75 C-128.9876499 26.23629312 -157.29291101 25.78916861 -182.41015625 34.1328125 C-185.3490541 35.30217634 -188.16286711 36.60283853 -191 38 C-192.67255859 38.77150391 -192.67255859 38.77150391 -194.37890625 39.55859375 C-215.21041983 49.45985103 -232.86529484 64.63335574 -244 85 C-244.63164062 86.12792969 -245.26328125 87.25585938 -245.9140625 88.41796875 C-259.01830918 113.09298644 -262.8790588 144.99053657 -255 172 C-252.72071603 179.11298605 -250.35474974 186.42224604 -246.9309082 193.07836914 C-245.49176517 196.04912571 -245.48644726 197.70859378 -246 201 C-247.80796737 204.17077975 -250.0086304 207.00009552 -252.25 209.875 C-256.01654786 214.78392941 -259.42042447 219.46898463 -262.05615234 225.07910156 C-263.66910795 228.3617541 -265.70113152 231.37186478 -267.6875 234.4375 C-271.32149291 240.160104 -274.74063426 245.95912773 -277.9375 251.9375 C-278.30254639 252.61031006 -278.66759277 253.28312012 -279.04370117 253.97631836 C-284.05124145 263.49473506 -286.20720939 272.16053042 -285 283 C-283.9658964 286.06649769 -282.75785663 288.25334902 -281 291 C-281.99 291 -282.98 291 -284 291 C-288.8623308 282.20873226 -289.19868436 274.65744419 -286.625 265 C-282.16491942 251.74583828 -274.64023485 239.583583 -266.94140625 227.98828125 C-265.35726897 225.54992105 -263.95918498 223.14001149 -262.625 220.5625 C-261.06467726 217.60843702 -259.27175972 214.98104236 -257.25390625 212.328125 C-256.7522998 211.6673999 -256.25069336 211.0066748 -255.73388672 210.32592773 C-254.72151111 209.00779359 -253.69617955 207.69948567 -252.65673828 206.40258789 C-250.43181288 203.51384103 -249.10306735 201.6273312 -248.50390625 197.98046875 C-249.10728761 194.35542955 -250.28275117 191.37031414 -251.75 188 C-263.92753631 158.93278153 -264.78495991 126.24196461 -252.81933594 96.95507812 C-240.55653725 67.69390653 -217.99672856 46.43238387 -189 34 C-161.08560178 22.62636754 -131.0135534 23.69401045 -103 34 C-100.60741122 35.16105991 -98.27259254 36.32410945 -95.9921875 37.69140625 C-93.77944321 38.24227792 -93.77944321 38.24227792 -91.265625 36.48828125 C-90.16403376 35.67626587 -89.07657139 34.84490608 -88 34 C-87.08661865 33.29580933 -87.08661865 33.29580933 -86.15478516 32.57739258 C-84.05139528 30.93914046 -81.96379782 29.28180744 -79.875 27.625 C-22.63817278 -17.18319139 -22.63817278 -17.18319139 0 0 Z " fill="#000000" transform="translate(291,9)"/>
<path d="M0 0 C1.55078125 1.609375 1.55078125 1.609375 3.3125 3.75 C6.76913565 7.81028927 9.83592084 11.27864028 15 13 C14.61771282 15.36773436 14.3482111 16.67293773 12.57299805 18.34033203 C11.97527588 18.72560059 11.37755371 19.11086914 10.76171875 19.5078125 C10.10623047 19.93707031 9.45074219 20.36632812 8.77539062 20.80859375 C7.74188477 21.46021484 7.74188477 21.46021484 6.6875 22.125 C6.01009766 22.56714844 5.33269531 23.00929687 4.63476562 23.46484375 C-3.91880665 29 -3.91880665 29 -8 29 C-8 29.66 -8 30.32 -8 31 C-10.875 31.1875 -10.875 31.1875 -14 31 C-16.24024819 27.63962772 -16.39602431 25.83217819 -15.875 21.87890625 C-14.09590306 16.02535961 -6.99031829 0 0 0 Z " fill="#F2F8F8" transform="translate(73,211)"/>
<path d="M0 0 C0.41523658 6.35523103 -0.50304709 10.10110649 -3.6875 15.5625 C-4.05037109 16.2129126 -4.41324219 16.8633252 -4.78710938 17.53344727 C-7.25845591 21.90055363 -9.90980012 26.04068141 -13 30 C-16.97314921 28.37849996 -19.79300438 25.64417127 -22.8125 22.6875 C-23.32748047 22.21376953 -23.84246094 21.74003906 -24.37304688 21.25195312 C-26.64413393 19.02951051 -27.95441422 17.6655524 -28.17578125 14.43359375 C-25.31750938 8.51763569 -17.08746167 3.77477788 -11.25 0.9375 C-7.27719871 -0.20850037 -4.11925251 -0.21680276 0 0 Z " fill="#F6FAFA" transform="translate(232,60)"/>
<path d="M0 0 C3.09765259 2.81604781 4.7321265 5.34124489 5.40625 9.515625 C5.62312145 15.84104222 4.87106001 19.6097748 0.625 24.40625 C-3.33377431 28.28889404 -5.98747095 29.18313152 -11.5 29.375 C-15.77623827 29.27112377 -18.60406715 28.81042719 -22 26 C-21.41483156 22.41259793 -20.07348497 20.66494587 -17.578125 18.06640625 C-16.88203125 17.33486328 -16.1859375 16.60332031 -15.46875 15.84960938 C-14.7365625 15.09486328 -14.004375 14.34011719 -13.25 13.5625 C-12.53328125 12.81162109 -11.8165625 12.06074219 -11.078125 11.28710938 C-7.4322781 7.47706532 -3.74720115 3.71031925 0 0 Z " fill="#382F3F" transform="translate(152,138)"/>
<path d="M0 0 C0.33 0 0.66 0 1 0 C0.51354996 6.3819341 -1.11370084 11.28775552 -3.8125 17.0625 C-4.32780273 18.2081543 -4.32780273 18.2081543 -4.85351562 19.37695312 C-6.99663798 24.07734719 -9.37204868 28.55315204 -12 33 C-12.99 32.67 -13.98 32.34 -15 32 C-14.67 30.35 -14.34 28.7 -14 27 C-14.99 26.34 -15.98 25.68 -17 25 C-17 25.66 -17 26.32 -17 27 C-18.14588068 28.14588068 -19.29712913 29.28670116 -20.46875 30.40625 C-22.17957483 32.18690442 -23.59480373 34.07679328 -25.0625 36.0625 C-29.78133594 42.27039084 -35.41684976 47.58186898 -41 53 C-40.67 53.99 -40.34 54.98 -40 56 C-40.99 56 -41.98 56 -43 56 C-43 57.32 -43 58.64 -43 60 C-43.99 60 -44.98 60 -46 60 C-46 59.01 -46 58.02 -46 57 C-46.99 57.66 -47.98 58.32 -49 59 C-49.99 58.67 -50.98 58.34 -52 58 C-50.74896484 57.07380859 -50.74896484 57.07380859 -49.47265625 56.12890625 C-30.75733207 42.12101488 -17.5804428 25.29541999 -10 3 C-7.36 3.99 -4.72 4.98 -2 6 C-1.34 4.02 -0.68 2.04 0 0 Z " fill="#456670" transform="translate(253,179)"/>
<path d="M0 0 C0 0.66 0 1.32 0 2 C0.61875 2.28875 1.2375 2.5775 1.875 2.875 C4 4 4 4 6 6 C6.43332499 11.28656491 6.50513984 14.74375877 3 19 C0.03704168 21.30452314 -3.3149821 21.55458939 -7.02734375 21.4296875 C-9.85393525 20.8139943 -11.51164237 19.32431484 -13.1484375 16.98046875 C-14.85324158 13.01562623 -14.84319708 9.18811114 -14 5 C-10.39378553 -0.81647495 -6.2386292 -0.61163031 0 0 Z " fill="#38313F" transform="translate(113,164)"/>
<path d="M0 0 C3.44312714 2.1244827 4.71617547 3.14852641 6 7 C6.66611433 12.88400994 6.66611433 12.88400994 4.953125 15.75390625 C2.25160126 19.05135434 0.48241943 20.7978519 -3.75 21.375 C-8.2753858 20.8528401 -9.7671103 19.15770622 -13 16 C-14.60086627 12.79826746 -14.49917089 9.47422941 -14 6 C-10.32289781 0.23920657 -6.72163958 -0.95287611 0 0 Z " fill="#352D3C" transform="translate(168,107)"/>
<path d="M0 0 C1.6396875 -0.00193359 1.6396875 -0.00193359 3.3125 -0.00390625 C4.46492188 -0.00003906 5.61734375 0.00382812 6.8046875 0.0078125 C8.49851563 0.00201172 8.49851563 0.00201172 10.2265625 -0.00390625 C25.45908888 0.01393043 25.45908888 0.01393043 28.9296875 3.1953125 C29.5071875 3.8346875 30.0846875 4.4740625 30.6796875 5.1328125 C31.6696875 5.1328125 32.6596875 5.1328125 33.6796875 5.1328125 C33.0196875 6.1228125 32.3596875 7.1128125 31.6796875 8.1328125 C29.61328125 8.4609375 29.61328125 8.4609375 27.1171875 8.3828125 C26.21355469 8.35703125 25.30992187 8.33125 24.37890625 8.3046875 C22.04285793 8.15593768 19.75058327 7.92891177 17.4296875 7.6328125 C6.24272465 6.25897496 -5.12736839 7.25493453 -16.3203125 8.1328125 C-15.9903125 6.8128125 -15.6603125 5.4928125 -15.3203125 4.1328125 C-13.3403125 4.7928125 -11.3603125 5.4528125 -9.3203125 6.1328125 C-9.3203125 5.1428125 -9.3203125 4.1528125 -9.3203125 3.1328125 C-8.0003125 3.4628125 -6.6803125 3.7928125 -5.3203125 4.1328125 C-5.6503125 3.1428125 -5.9803125 2.1528125 -6.3203125 1.1328125 C-4.60343966 -0.58406034 -2.34063223 0.00264649 0 0 Z " fill="#45646B" transform="translate(137.3203125,36.8671875)"/>
<path d="M0 0 C1.11375 0.1546875 1.11375 0.1546875 2.25 0.3125 C1.75424794 4.69268912 0.91684142 7.24318303 -1.8125 10.6875 C-6.76517554 17.38696982 -10.17232179 24.82260744 -13.75 32.3125 C-14.74 32.3125 -15.73 32.3125 -16.75 32.3125 C-17.03875 33.59125 -17.3275 34.87 -17.625 36.1875 C-18.29102483 39.13703855 -18.55202597 40.11452597 -20.75 42.3125 C-21.74 42.8075 -21.74 42.8075 -22.75 43.3125 C-22.523125 43.910625 -22.29625 44.50875 -22.0625 45.125 C-21.959375 45.846875 -21.85625 46.56875 -21.75 47.3125 C-23.23046875 48.94921875 -23.23046875 48.94921875 -24.75 50.3125 C-24.23289528 43.87741909 -23.07687516 38.34871176 -20.8125 32.3125 C-20.51110107 31.50087402 -20.20970215 30.68924805 -19.89916992 29.85302734 C-8.69180982 0.98770566 -8.69180982 0.98770566 0 0 Z " fill="#3D6A75" transform="translate(58.75,78.6875)"/>
<path d="M0 0 C2.475 0.495 2.475 0.495 5 1 C4.855625 1.680625 4.71125 2.36125 4.5625 3.0625 C3.94148402 6.0162824 3.94148402 6.0162824 3.75 9.125 C2.81047602 13.97920724 0.833605 17.65533379 -1.5625 21.9375 C-1.98724609 22.71673828 -2.41199219 23.49597656 -2.84960938 24.29882812 C-3.89012854 26.20449805 -4.94374418 28.10300722 -6 30 C-6.99 29.67 -7.98 29.34 -9 29 C-9.33 30.32 -9.66 31.64 -10 33 C-11.98 33 -13.96 33 -16 33 C-16 31.35 -16 29.7 -16 28 C-15.34 27.67 -14.68 27.34 -14 27 C-13.855625 26.360625 -13.71125 25.72125 -13.5625 25.0625 C-13 23 -13 23 -10 21 C-10 20.01 -10 19.02 -10 18 C-9.34 17.34 -8.68 16.68 -8 16 C-7.35232207 13.42938689 -7.35232207 13.42938689 -7 11 C-5.35 11.33 -3.7 11.66 -2 12 C-2.99 10.68 -3.98 9.36 -5 8 C-3.38731308 5.28775382 -1.75098126 2.62647188 0 0 Z " fill="#39606C" transform="translate(289,34)"/>
<path d="M0 0 C0 2.31 0 4.62 0 7 C-0.66 6.34 -1.32 5.68 -2 5 C-2.99 5.33 -3.98 5.66 -5 6 C-4.505 8.475 -4.505 8.475 -4 11 C-4.556875 10.505 -5.11375 10.01 -5.6875 9.5 C-8.38162983 7.75245633 -9.85375007 7.73781251 -13 8 C-13.33 9.98 -13.66 11.96 -14 14 C-18.34149055 14.14857681 -22.68162732 14.25731436 -27.02490234 14.32958984 C-28.50140156 14.35972248 -29.97772232 14.40063879 -31.45361328 14.45263672 C-33.57889779 14.52562629 -35.70181393 14.55948491 -37.828125 14.5859375 C-39.1059082 14.6173584 -40.38369141 14.6487793 -41.70019531 14.68115234 C-45 14 -45 14 -47.44824219 11.02587891 C-49 8 -49 8 -49 7 C-45.875 5.6875 -45.875 5.6875 -42 5 C-38.75 7.3125 -38.75 7.3125 -36 10 C-27.26461112 12.91179629 -20.01206971 9.70450535 -12 6 C-9.24314832 4.46120828 -6.57276167 2.85660619 -3.92578125 1.13671875 C-2 0 -2 0 0 0 Z " fill="#426570" transform="translate(55,286)"/>
<path d="M0 0 C0.66 0 1.32 0 2 0 C2.95346319 7.49885913 3.59992824 14.74756858 1 22 C0.34 22.33 -0.32 22.66 -1 23 C-1.65772428 26.02934491 -1.65772428 26.02934491 -2 29 C-3.98 28.67 -5.96 28.34 -8 28 C-8 27.34 -8 26.68 -8 26 C-8.66 26 -9.32 26 -10 26 C-9.32418477 19.91766294 -8.26361972 13.98685848 -7 8 C-6.38125 8.66 -5.7625 9.32 -5.125 10 C-3.24362573 12.2284549 -3.24362573 12.2284549 -1 12 C-1 11.34 -1 10.68 -1 10 C-0.34 10 0.32 10 1 10 C0.67 9.01 0.34 8.02 0 7 C-0.03954234 4.66700175 -0.04401732 2.33291811 0 0 Z " fill="#3F606F" transform="translate(254,157)"/>
<path d="M0 0 C0.65658115 4.37720769 -0.17021768 6.70450835 -2.6875 10.1875 C-5.15403654 13.21566575 -7.32199437 15.49107461 -11 17 C-13.8125 17.1875 -13.8125 17.1875 -16 17 C-15.8849 10.55439985 -14.3669041 7.24830348 -9.9140625 2.56640625 C-6.73518492 -0.03508337 -3.92109333 0 0 0 Z " fill="#DA2A83" transform="translate(157,150)"/>
<path d="M0 0 C3.43705705 -0.14505175 6.87333033 -0.23398014 10.3125 -0.3125 C11.28896484 -0.35439453 12.26542969 -0.39628906 13.27148438 -0.43945312 C15.93538473 -0.48522461 18.37820916 -0.47884217 21 0 C23.22636141 2.45902621 24 3.69869275 24 7 C15.09 7 6.18 7 -3 7 C-3 6.34 -3 5.68 -3 5 C-1.35 5 0.3 5 2 5 C2 4.01 2 3.02 2 2 C1.34 2 0.68 2 0 2 C0 1.34 0 0.68 0 0 Z " fill="#436268" transform="translate(134,257)"/>
<path d="M0 0 C0 0.66 0 1.32 0 2 C-1.6205424 3.40903778 -3.29882456 4.75194773 -5 6.0625 C-10.280769 10.27071954 -14.70996367 14.80032846 -19 20 C-19.33 19.01 -19.66 18.02 -20 17 C-20.99 17 -21.98 17 -23 17 C-23.33 17.66 -23.66 18.32 -24 19 C-23.10462788 13.92691712 -19.85769972 11.38044723 -16.3125 7.875 C-15.69955078 7.24207031 -15.08660156 6.60914062 -14.45507812 5.95703125 C-10.21315779 1.71960924 -6.29310894 -2.09770298 0 0 Z " fill="#44626D" transform="translate(81,62)"/>
<path d="M0 0 C0.66 0.33 1.32 0.66 2 1 C2.33 1 2.66 1 3 1 C5.00109278 1.32670903 7.00116131 1.65977214 9 2 C8 5 8 5 6 7 C6.66 7.33 7.32 7.66 8 8 C2.375 11 2.375 11 -1 11 C-1 10.34 -1 9.68 -1 9 C-2.32 9 -3.64 9 -5 9 C-5.33 8.34 -5.66 7.68 -6 7 C-6.66 7.66 -7.32 8.32 -8 9 C-7.67 9.66 -7.34 10.32 -7 11 C-8.32 10.67 -9.64 10.34 -11 10 C-11 9.34 -11 8.68 -11 8 C-11.66 7.67 -12.32 7.34 -13 7 C-12.14535156 6.57847656 -11.29070312 6.15695313 -10.41015625 5.72265625 C-9.30542969 5.17480469 -8.20070312 4.62695312 -7.0625 4.0625 C-5.96035156 3.51722656 -4.85820312 2.97195312 -3.72265625 2.41015625 C-1.15205586 1.25295022 -1.15205586 1.25295022 0 0 Z " fill="#436671" transform="translate(199,238)"/>
<path d="M0 0 C6.19311362 0.57343645 12.20966865 1.64097612 18 4 C18.33 4.66 18.66 5.32 19 6 C18.34 6 17.68 6 17 6 C16.34 7.65 15.68 9.3 15 11 C10.05 9.68 5.1 8.36 0 7 C1.32 6.34 2.64 5.68 4 5 C4 4.67 4 4.34 4 4 C3.34 3.67 2.68 3.34 2 3 C2 2.34 2 1.68 2 1 C1.34 0.67 0.68 0.34 0 0 Z " fill="#426372" transform="translate(165,39)"/>
<path d="M0 0 C0.33 0.99 0.66 1.98 1 3 C-0.32 2.67 -1.64 2.34 -3 2 C-3 2.99 -3 3.98 -3 5 C-3.99 5.33 -4.98 5.66 -6 6 C-6.33 5.34 -6.66 4.68 -7 4 C-7.66 4 -8.32 4 -9 4 C-9.33 5.32 -9.66 6.64 -10 8 C-12.64 8.33 -15.28 8.66 -18 9 C-18.103125 8.360625 -18.20625 7.72125 -18.3125 7.0625 C-18.539375 6.381875 -18.76625 5.70125 -19 5 C-19.99 4.67 -20.98 4.34 -22 4 C-19.4604163 3.32438628 -16.91881165 2.65934172 -14.375 2 C-13.66214844 1.80921875 -12.94929688 1.6184375 -12.21484375 1.421875 C-8.04151456 0.34982713 -4.34821249 -0.21946814 0 0 Z " fill="#396A78" transform="translate(131,38)"/>
<path d="M0 0 C0.99 0.33 1.98 0.66 3 1 C3 1.99 3 2.98 3 4 C2.34 4 1.68 4 1 4 C0.67 4.99 0.34 5.98 0 7 C-1.65 6.67 -3.3 6.34 -5 6 C-4.34 7.98 -3.68 9.96 -3 12 C-2.34 11.67 -1.68 11.34 -1 11 C-1 11.99 -1 12.98 -1 14 C-4 15 -4 15 -7 14 C-7.33 14.66 -7.66 15.32 -8 16 C-8.66 15.67 -9.32 15.34 -10 15 C-10 14.01 -10 13.02 -10 12 C-10.66 12 -11.32 12 -12 12 C-10.54905987 8.61447304 -8.8783496 6.31867051 -6 4 C-2.75 3.25 -2.75 3.25 0 3 C0 2.01 0 1.02 0 0 Z " fill="#44636F" transform="translate(272,68)"/>
<path d="M0 0 C0.33 0.99 0.66 1.98 1 3 C-3.99128112 12.36272994 -12.43354523 19.74496943 -20 27 C-19.67 27.99 -19.34 28.98 -19 30 C-19.99 30 -20.98 30 -22 30 C-22 31.32 -22 32.64 -22 34 C-22.99 34 -23.98 34 -25 34 C-25 33.01 -25 32.02 -25 31 C-25.99 31.66 -26.98 32.32 -28 33 C-28.99 32.67 -29.98 32.34 -31 32 C-30.16597656 31.38253906 -29.33195313 30.76507813 -28.47265625 30.12890625 C-16.8036495 21.39454685 -7.96982563 12.19025338 0 0 Z " fill="#53707B" transform="translate(232,205)"/>
<path d="M0 0 C0.33 0 0.66 0 1 0 C1 10.23 1 20.46 1 31 C0.01 30.67 -0.98 30.34 -2 30 C-2 29.01 -2 28.02 -2 27 C-2.66 27 -3.32 27 -4 27 C-4 20.73 -4 14.46 -4 8 C-3.34 8 -2.68 8 -2 8 C-1.7834375 6.576875 -1.7834375 6.576875 -1.5625 5.125 C-1 2 -1 2 0 0 Z " fill="#415D64" transform="translate(38,133)"/>
<path d="M0 0 C1.32 0.33 2.64 0.66 4 1 C1.49697031 7.04083144 -1.37903866 12.55371798 -5 18 C-5.33 17.34 -5.66 16.68 -6 16 C-6.66 16 -7.32 16 -8 16 C-8 15.34 -8 14.68 -8 14 C-7.34 14 -6.68 14 -6 14 C-6.0825 13.13375 -6.165 12.2675 -6.25 11.375 C-5.94126623 7.20709412 -4.60239421 5.21472226 -2 2 C-1.34 2 -0.68 2 0 2 C0 1.34 0 0.68 0 0 Z " fill="#48616D" transform="translate(31,231)"/>
<path d="M0 0 C5.75 1.875 5.75 1.875 8 3 C8 3.66 8 4.32 8 5 C9.65 5 11.3 5 13 5 C13.33 6.32 13.66 7.64 14 9 C12.37890625 10.171875 12.37890625 10.171875 10 11 C7.08984375 9.953125 7.08984375 9.953125 3.9375 8.25 C2.89464844 7.69828125 1.85179687 7.1465625 0.77734375 6.578125 C-1.19213286 5.45904124 -3.11522947 4.25651369 -5 3 C-4.67 2.34 -4.34 1.68 -4 1 C-3.01 1.33 -2.02 1.66 -1 2 C-0.67 1.34 -0.34 0.68 0 0 Z " fill="#436571" transform="translate(186,47)"/>
<path d="M0 0 C0.33 0 0.66 0 1 0 C2.66482452 10.19705019 2.66482452 20.80294981 1 31 C-1 29 -1 29 -1.24291992 26.32617188 C-1.23881104 25.21822266 -1.23470215 24.11027344 -1.23046875 22.96875 C-1.22853516 21.76605469 -1.22660156 20.56335938 -1.22460938 19.32421875 C-1.21236328 18.06222656 -1.20011719 16.80023438 -1.1875 15.5 C-1.18685547 14.23800781 -1.18621094 12.97601563 -1.18554688 11.67578125 C-1.14023184 2.28046368 -1.14023184 2.28046368 0 0 Z " fill="#626969" transform="translate(33,135)"/>
<path d="M0 0 C0.66 0 1.32 0 2 0 C1.48371074 4.72671723 -0.70030794 8.0162994 -3.375 11.8125 C-3.77460938 12.40998047 -4.17421875 13.00746094 -4.5859375 13.62304688 C-5.7734375 15.33203125 -5.7734375 15.33203125 -8 18 C-9.33333333 18 -10.66666667 18 -12 18 C-12.33 15.69 -12.66 13.38 -13 11 C-11.35 11 -9.7 11 -8 11 C-7.67 9.68 -7.34 8.36 -7 7 C-6.01 7 -5.02 7 -4 7 C-3.67 5.68 -3.34 4.36 -3 3 C-2.34 3 -1.68 3 -1 3 C-0.67 2.01 -0.34 1.02 0 0 Z " fill="#3F7177" transform="translate(280,63)"/>
<path d="M0 0 C1.90265625 -0.00386719 1.90265625 -0.00386719 3.84375 -0.0078125 C7.16105518 0.1126879 10.24630764 0.4923376 13.5 1.125 C13.5 1.785 13.5 2.445 13.5 3.125 C4.59 3.125 -4.32 3.125 -13.5 3.125 C-13.5 2.465 -13.5 1.805 -13.5 1.125 C-8.94928468 0.24013869 -4.63320326 -0.00941708 0 0 Z " fill="#616969" transform="translate(144.5,260.875)"/>
<path d="M0 0 C6.48372093 0.7627907 6.48372093 0.7627907 9.3125 2.0625 C13.47295955 3.5138231 17.6351789 3.15255685 22 3 C22 3.66 22 4.32 22 5 C18.59659693 7.09440189 15.95562822 7.25797575 12 7 C11.34 6.67 10.68 6.34 10 6 C10 5.34 10 4.68 10 4 C8.68 4.33 7.36 4.66 6 5 C6 4.01 6 3.02 6 2 C5.34 2 4.68 2 4 2 C3.67 2.99 3.34 3.98 3 5 C2.67 4.34 2.34 3.68 2 3 C1.67 3.66 1.34 4.32 1 5 C0.01 5 -0.98 5 -2 5 C-1.34 3.35 -0.68 1.7 0 0 Z " fill="#3D6165" transform="translate(182,45)"/>
<path d="M0 0 C8.25 0 16.5 0 25 0 C25 0.66 25 1.32 25 2 C16.48622217 3.89195063 7.55935463 3.31682379 -1 2 C-0.67 1.34 -0.34 0.68 0 0 Z " fill="#5F6969" transform="translate(132,37)"/>
<path d="M0 0 C1.65 0 3.3 0 5 0 C3.37940026 3.54506192 1.27370948 6.59021257 -1 9.75 C-1.70125 10.73484375 -2.4025 11.7196875 -3.125 12.734375 C-4.053125 13.85585937 -4.053125 13.85585937 -5 15 C-5.66 15 -6.32 15 -7 15 C-8 12 -8 12 -7.1875 9.875 C-6 8 -6 8 -4 7 C-3.67 6.01 -3.34 5.02 -3 4 C-2.34 3.67 -1.68 3.34 -1 3 C-0.67 2.01 -0.34 1.02 0 0 Z " fill="#337377" transform="translate(265,82)"/>
<path d="M0 0 C0.66 0.99 1.32 1.98 2 3 C1.01 3.99 0.02 4.98 -1 6 C-0.67 6.99 -0.34 7.98 0 9 C0.66 9.33 1.32 9.66 2 10 C0.02 12.97 -1.96 15.94 -4 19 C-4.33 18.01 -4.66 17.02 -5 16 C-4.67 15.34 -4.34 14.68 -4 14 C-4.99 13.67 -5.98 13.34 -7 13 C-7.33 13.66 -7.66 14.32 -8 15 C-7.4520917 10.7170548 -5.97567196 8.14864359 -3.4375 4.6875 C-2.79683594 3.80449219 -2.15617187 2.92148438 -1.49609375 2.01171875 C-0.75552734 1.01591797 -0.75552734 1.01591797 0 0 Z " fill="#43646D" transform="translate(38,218)"/>
<path d="M0 0 C1.32 0.33 2.64 0.66 4 1 C3.64035156 1.92232422 3.64035156 1.92232422 3.2734375 2.86328125 C2.82871094 4.07564453 2.82871094 4.07564453 2.375 5.3125 C2.07335938 6.11300781 1.77171875 6.91351563 1.4609375 7.73828125 C1.30882812 8.48464844 1.15671875 9.23101562 1 10 C1.99 11.485 1.99 11.485 3 13 C1.68 13 0.36 13 -1 13 C-1 13.66 -1 14.32 -1 15 C-2.65 15 -4.3 15 -6 15 C-4.79618552 12.50638429 -3.54571278 10.31856917 -2 8 C-1.33841957 5.95415921 -1.33841957 5.95415921 -0.875 3.8125 C-0.58625 2.554375 -0.2975 1.29625 0 0 Z " fill="#3B7378" transform="translate(46,202)"/>
<path d="M0 0 C0.66 0.33 1.32 0.66 2 1 C2 8.59 2 16.18 2 24 C1.34 24.33 0.68 24.66 0 25 C-1.24113378 16.46720526 -1.24113378 8.53279474 0 0 Z " fill="#5B6868" transform="translate(256,138)"/>
<path d="M0 0 C0.33 0 0.66 0 1 0 C1 1.98 1 3.96 1 6 C1.66 6.33 2.32 6.66 3 7 C-2.75846439 8.39599137 -8.24153561 8.39599137 -14 7 C-12.68 6.67 -11.36 6.34 -10 6 C-10 5.34 -10 4.68 -10 4 C-6.7 3.67 -3.4 3.34 0 3 C0 2.01 0 1.02 0 0 Z " fill="#426D7E" transform="translate(167,255)"/>
<path d="M0 0 C0.99 0 1.98 0 3 0 C4.32168051 2.17688554 5.0131712 3.55217933 4.9375 6.125 C4 8 4 8 1.4375 9.25 C0.633125 9.4975 -0.17125 9.745 -1 10 C-1.33 9.01 -1.66 8.02 -2 7 C-2.99 7 -3.98 7 -5 7 C-4.67 6.01 -4.34 5.02 -4 4 C-3.34 4 -2.68 4 -2 4 C-2 4.66 -2 5.32 -2 6 C-1.34 6 -0.68 6 0 6 C0 4.02 0 2.04 0 0 Z " fill="#38626B" transform="translate(96,256)"/>
<path d="M0 0 C2.22189824 2.22189824 2.92598892 4.08482708 4 7 C5.65 7 7.3 7 9 7 C9.33 8.32 9.66 9.64 10 11 C9.01 11 8.02 11 7 11 C7 11.66 7 12.32 7 13 C6.34 12.67 5.68 12.34 5 12 C4.01 12 3.02 12 2 12 C-1.57142857 4.71428571 -1.57142857 4.71428571 0 0 Z " fill="#44767B" transform="translate(40,188)"/>
<path d="M0 0 C0.4125 0.515625 0.825 1.03125 1.25 1.5625 C1.8275 2.036875 2.405 2.51125 3 3 C5.16299211 2.77242269 5.16299211 2.77242269 7 2 C7 5 7 5 5.1875 7.1875 C3 9 3 9 0 9 C0 8.01 0 7.02 0 6 C-0.66 6 -1.32 6 -2 6 C-2.33 4.68 -2.66 3.36 -3 2 C-2.01 1.34 -1.02 0.68 0 0 Z " fill="#3F5D69" transform="translate(62,282)"/>
<path d="M0 0 C0.9075 0.391875 1.815 0.78375 2.75 1.1875 C-0.05804268 4.15154505 -2.43315774 6.63249019 -6.25 8.1875 C-6.25 7.1975 -6.25 6.2075 -6.25 5.1875 C-7.24 5.5175 -8.23 5.8475 -9.25 6.1875 C-7.29453702 1.4617978 -5.34722358 -1.33680589 0 0 Z " fill="#426270" transform="translate(218.25,36.8125)"/>
<path d="M0 0 C1.54296875 1.24609375 1.54296875 1.24609375 3 3 C2.92578125 4.97265625 2.92578125 4.97265625 2.3125 7.0625 C2.12300781 7.75472656 1.93351562 8.44695312 1.73828125 9.16015625 C0.71783 11.70318554 -0.57248081 12.78624041 -3 14 C-2.773125 14.598125 -2.54625 15.19625 -2.3125 15.8125 C-2.1578125 16.8953125 -2.1578125 16.8953125 -2 18 C-3.48046875 19.63671875 -3.48046875 19.63671875 -5 21 C-4.5003731 13.50559651 -2.56235522 7.04349737 0 0 Z " fill="#3D7B7B" transform="translate(39,108)"/>
<path d="M0 0 C0.66 0.33 1.32 0.66 2 1 C-4.27 7.27 -10.54 13.54 -17 20 C-17.66 19.67 -18.32 19.34 -19 19 C-16.96293245 16.76647935 -14.92059146 14.53819245 -12.875 12.3125 C-12.30523437 11.68666016 -11.73546875 11.06082031 -11.1484375 10.41601562 C-7.64212118 6.61086553 -4.05147534 3.2202456 0 0 Z " fill="#D9DFE2" transform="translate(79,64)"/>
<path d="M0 0 C-0.72008406 4.60853797 -2.31295939 8.67237409 -4 13 C-4.66 13 -5.32 13 -6 13 C-6.33 9.37 -6.66 5.74 -7 2 C-3 0 -3 0 0 0 Z " fill="#346474" transform="translate(40,128)"/>
<path d="M0 0 C0.99 0.33 1.98 0.66 3 1 C3 1.99 3 2.98 3 4 C4.32 3.67 5.64 3.34 7 3 C7 4.32 7 5.64 7 7 C4.3260876 7.89130413 1.76276177 8.47731534 -1 9 C-2 7 -2 7 -3 4 C-1.5625 1.8125 -1.5625 1.8125 0 0 Z " fill="#3E616C" transform="translate(244,185)"/>
<path d="M0 0 C2.12182553 2.8534895 2.4939443 4.93338735 2.8125 8.4375 C1.8225 8.9325 1.8225 8.9325 0.8125 9.4375 C0.1525 8.4475 -0.5075 7.4575 -1.1875 6.4375 C-3.15668846 5.05906808 -5.15414791 3.71939588 -7.1875 2.4375 C-6.1875 -0.5625 -6.1875 -0.5625 -4.375 -1.5 C-2.1875 -1.5625 -2.1875 -1.5625 0 0 Z " fill="#42616C" transform="translate(251.1875,116.5625)"/>
<path d="M0 0 C0.33 0.66 0.66 1.32 1 2 C1.556875 1.814375 2.11375 1.62875 2.6875 1.4375 C5.52934401 0.89985384 7.24683327 1.10522081 10 2 C12.3125 4.0625 12.3125 4.0625 14 6 C6.1177798 5.48400816 -1.34458305 3.9078547 -9 2 C-9 1.67 -9 1.34 -9 1 C-4.545 0.505 -4.545 0.505 0 0 Z " fill="#2A6D79" transform="translate(115,257)"/>
<path d="M0 0 C0.66 1.65 1.32 3.3 2 5 C1.01 5 0.02 5 -1 5 C-1 4.34 -1 3.68 -1 3 C-1.66 3 -2.32 3 -3 3 C-3 3.66 -3 4.32 -3 5 C-3.763125 4.979375 -4.52625 4.95875 -5.3125 4.9375 C-8.10185786 4.87057159 -8.10185786 4.87057159 -11 6 C-8.60159776 0.46522561 -5.82500047 -0.25888891 0 0 Z " fill="#3B5C68" transform="translate(112,43)"/>
<path d="M0 0 C2.97 0.33 5.94 0.66 9 1 C9 1.66 9 2.32 9 3 C8.34 3 7.68 3 7 3 C7 3.66 7 4.32 7 5 C5.68 5 4.36 5 3 5 C3 5.99 3 6.98 3 8 C2.01 8 1.02 8 0 8 C0 5.36 0 2.72 0 0 Z " fill="#365D66" transform="translate(102,252)"/>
<path d="M0 0 C0.66 0.33 1.32 0.66 2 1 C-2.95 5.95 -7.9 10.9 -13 16 C-13.66 15.67 -14.32 15.34 -15 15 C-10.28109462 9.59947495 -5.69641143 4.38185495 0 0 Z " fill="#38E6E1" transform="translate(85,74)"/>
<path d="M0 0 C0.33 1.32 0.66 2.64 1 4 C-2 5 -2 5 -3.875 4.375 C-6.99417271 3.82455776 -8.48546564 5.25379558 -11 7 C-11.66 6.34 -12.32 5.68 -13 5 C-4.738041 -0.74031891 -4.738041 -0.74031891 0 0 Z " fill="#28636B" transform="translate(96,50)"/>
<path d="M0 0 C2.475 0.99 2.475 0.99 5 2 C3.7508258 5.45925163 2.32472205 8.14693203 0 11 C-0.66 10.67 -1.32 10.34 -2 10 C-1.34 6.7 -0.68 3.4 0 0 Z " fill="#3B6B78" transform="translate(240,201)"/>
<path d="M0 0 C0.99 0.33 1.98 0.66 3 1 C1.55746343 4.36591866 -0.33264727 6.51047079 -3 9 C-3.33 8.01 -3.66 7.02 -4 6 C-5.98 6 -7.96 6 -10 6 C-9.34 4.68 -8.68 3.36 -8 2 C-5.69 2.33 -3.38 2.66 -1 3 C-0.67 2.01 -0.34 1.02 0 0 Z " fill="#356873" transform="translate(234,215)"/>
<path d="M0 0 C0.99 0.33 1.98 0.66 3 1 C2.01 3.97 1.02 6.94 0 10 C-0.66 8.68 -1.32 7.36 -2 6 C-2.66 6 -3.32 6 -4 6 C-3.6875 4.125 -3.6875 4.125 -3 2 C-2.01 1.34 -1.02 0.68 0 0 Z " fill="#3D6C76" transform="translate(247,191)"/>
<path d="M0 0 C0.33 0 0.66 0 1 0 C1.33 1.65 1.66 3.3 2 5 C2.66 4.67 3.32 4.34 4 4 C3.979375 5.093125 3.95875 6.18625 3.9375 7.3125 C3.81455548 10.94384191 3.81455548 10.94384191 5 14 C3.35 14 1.7 14 0 14 C0 9.38 0 4.76 0 0 Z " fill="#2B6D6E" transform="translate(5,278)"/>
<path d="M0 0 C0.66 0 1.32 0 2 0 C2.19644384 1.89492746 2.38177288 3.79100903 2.5625 5.6875 C2.66691406 6.74324219 2.77132813 7.79898438 2.87890625 8.88671875 C2.99277552 11.81426086 2.70848415 14.17131144 2 17 C-1 13.375 -1 13.375 -1 10 C-0.34 10 0.32 10 1 10 C0.67 9.01 0.34 8.02 0 7 C-0.03954234 4.66700175 -0.04401732 2.33291811 0 0 Z " fill="#306F79" transform="translate(254,157)"/>
<path d="M0 0 C1.65 0 3.3 0 5 0 C5.38218767 1.65614657 5.71395102 3.32457024 6 5 C5 6 5 6 2.4375 6.0625 C1.2309375 6.0315625 1.2309375 6.0315625 0 6 C0 4.02 0 2.04 0 0 Z " fill="#137C79" transform="translate(123,162)"/>
<path d="M0 0 C2.625 0.375 2.625 0.375 5 1 C5 1.66 5 2.32 5 3 C1.37 4.98 -2.26 6.96 -6 9 C-6.33 8.34 -6.66 7.68 -7 7 C-4.66666667 4.66666667 -2.33333333 2.33333333 0 0 Z " fill="#476774" transform="translate(89,53)"/>
<path d="M0 0 C0.680625 0.433125 1.36125 0.86625 2.0625 1.3125 C1.0725 1.6425 0.0825 1.9725 -0.9375 2.3125 C-0.9375 3.6325 -0.9375 4.9525 -0.9375 6.3125 C-1.9275 6.3125 -2.9175 6.3125 -3.9375 6.3125 C-3.9375 5.3225 -3.9375 4.3325 -3.9375 3.3125 C-4.9275 3.9725 -5.9175 4.6325 -6.9375 5.3125 C-7.9275 4.9825 -8.9175 4.6525 -9.9375 4.3125 C-3.86310175 -0.9041302 -3.86310175 -0.9041302 0 0 Z " fill="#4E6D76" transform="translate(210.9375,232.6875)"/>
<path d="M0 0 C1.875 0.25 1.875 0.25 4 1 C5.72101535 3.58152302 6 4.84918025 6 8 C4.35 8 2.7 8 1 8 C0.855625 7.38125 0.71125 6.7625 0.5625 6.125 C0.06847775 3.96741678 0.06847775 3.96741678 -1 2 C-0.67 1.34 -0.34 0.68 0 0 Z " fill="#426068" transform="translate(42,188)"/>
<path d="M0 0 C1.67542976 0.28604898 3.34385343 0.61781233 5 1 C4.67 2.65 4.34 4.3 4 6 C2.35 6 0.7 6 -1 6 C-1.042721 4.33388095 -1.04063832 2.66617115 -1 1 C-0.67 0.67 -0.34 0.34 0 0 Z " fill="#0D7976" transform="translate(185,92)"/>
<path d="M0 0 C0.99 0.33 1.98 0.66 3 1 C-2.0940919 7.70459519 -2.0940919 7.70459519 -5.875 8.9375 C-6.57625 8.958125 -7.2775 8.97875 -8 9 C-7.04270084 7.87411986 -6.08412105 6.7493285 -5.125 5.625 C-4.59132812 4.99851562 -4.05765625 4.37203125 -3.5078125 3.7265625 C-2.38567993 2.44163349 -1.20628025 1.20628025 0 0 Z " fill="#2E5C69" transform="translate(68,67)"/>
<path d="M0 0 C1.65 0.33 3.3 0.66 5 1 C4.67 2.65 4.34 4.3 4 6 C2.35 5.67 0.7 5.34 -1 5 C-0.67 3.35 -0.34 1.7 0 0 Z " fill="#08ABA7" transform="translate(123,110)"/>
<path d="M0 0 C0 0.66 0 1.32 0 2 C-1.32 2 -2.64 2 -4 2 C-4 3.65 -4 5.3 -4 7 C-4.99 7 -5.98 7 -7 7 C-7.103125 6.360625 -7.20625 5.72125 -7.3125 5.0625 C-7.539375 4.381875 -7.76625 3.70125 -8 3 C-8.99 2.67 -9.98 2.34 -11 2 C-7.12315913 0.80712589 -4.08378077 0 0 0 Z " fill="#2A687A" transform="translate(120,40)"/>
<path d="M0 0 C0.36923077 6.52307692 0.36923077 6.52307692 -1.5 8.9375 C-1.995 9.288125 -2.49 9.63875 -3 10 C-3 9.34 -3 8.68 -3 8 C-3.66 7.67 -4.32 7.34 -5 7 C-4.67 6.34 -4.34 5.68 -4 5 C-4 3.68 -4 2.36 -4 1 C-2 0 -2 0 0 0 Z " fill="#425D6A" transform="translate(20,253)"/>
<path d="M0 0 C1.32 0.33 2.64 0.66 4 1 C3.67 1.99 3.34 2.98 3 4 C-0.3 4.33 -3.6 4.66 -7 5 C-6.67 3.68 -6.34 2.36 -6 1 C-4.02 1.66 -2.04 2.32 0 3 C0 2.01 0 1.02 0 0 Z " fill="#40636B" transform="translate(128,40)"/>
<path d="M0 0 C0.66 0.33 1.32 0.66 2 1 C0.71937515 2.7074998 -0.61767557 4.37373596 -2 6 C-2.66 6 -3.32 6 -4 6 C-3.67 7.65 -3.34 9.3 -3 11 C-3.66 10.34 -4.32 9.68 -5 9 C-6.32 8.34 -7.64 7.68 -9 7 C-6.03 4.69 -3.06 2.38 0 0 Z " fill="#496A73" transform="translate(74,271)"/>
<path d="M0 0 C2.31 0.66 4.62 1.32 7 2 C5.68 2.33 4.36 2.66 3 3 C3 4.65 3 6.3 3 8 C2.67 7.01 2.34 6.02 2 5 C0.35 4.67 -1.3 4.34 -3 4 C-2.01 2.68 -1.02 1.36 0 0 Z " fill="#4A6B77" transform="translate(103,247)"/>
<path d="M0 0 C0.66 0.99 1.32 1.98 2 3 C1.566875 3.37125 1.13375 3.7425 0.6875 4.125 C-1.18922422 6.03296295 -1.18922422 6.03296295 -2.4375 9 C-4.00220356 12.00423084 -5.16875599 13.24267613 -8 15 C-7.4520917 10.7170548 -5.97567196 8.14864359 -3.4375 4.6875 C-2.79683594 3.80449219 -2.15617187 2.92148438 -1.49609375 2.01171875 C-0.75552734 1.01591797 -0.75552734 1.01591797 0 0 Z " fill="#337C81" transform="translate(38,218)"/>
<path d="M0 0 C-0.3125 1.875 -0.3125 1.875 -1 4 C-1.99 4.66 -2.98 5.32 -4 6 C-4 5.01 -4 4.02 -4 3 C-4.99 3 -5.98 3 -7 3 C-7.33 3.66 -7.66 4.32 -8 5 C-7.75 3.125 -7.75 3.125 -7 1 C-4.09342573 -1.03460199 -3.47133392 -1.15711131 0 0 Z " fill="#526274" transform="translate(65,76)"/>
<path d="M0 0 C1.04449911 3.13349732 0.93423645 3.98968256 0 7 C-0.66 7 -1.32 7 -2 7 C-1.67 8.32 -1.34 9.64 -1 11 C-2.65 11.66 -4.3 12.32 -6 13 C-4.31326082 8.50202887 -2.18326108 4.27113698 0 0 Z M-7 13 C-6.67 13.66 -6.34 14.32 -6 15 C-6.66 14.67 -7.32 14.34 -8 14 C-7.67 13.67 -7.34 13.34 -7 13 Z " fill="#4D6C78" transform="translate(281,45)"/>
<path d="M0 0 C0.66 0 1.32 0 2 0 C2 0.99 2 1.98 2 3 C2.66 3 3.32 3 4 3 C3.67 4.32 3.34 5.64 3 7 C0.36 6.01 -2.28 5.02 -5 4 C-4.67 3.01 -4.34 2.02 -4 1 C-3.01 1.33 -2.02 1.66 -1 2 C-0.67 1.34 -0.34 0.68 0 0 Z " fill="#496B76" transform="translate(186,47)"/>
<path d="M0 0 C0.33 0 0.66 0 1 0 C1 1.65 1 3.3 1 5 C0.34 5 -0.32 5 -1 5 C-1 5.66 -1 6.32 -1 7 C-0.34 7 0.32 7 1 7 C0.67 8.98 0.34 10.96 0 13 C-0.33 11.68 -0.66 10.36 -1 9 C-2.32 9.33 -3.64 9.66 -5 10 C-3.66654496 6.40992874 -2.1056769 3.20429093 0 0 Z " fill="#2D6B72" transform="translate(24,240)"/>
<path d="M0 0 C8.57142857 0.85714286 8.57142857 0.85714286 12 3 C10.68 3 9.36 3 8 3 C8.33 4.32 8.66 5.64 9 7 C5.125 5.125 5.125 5.125 4 4 C3.34 3.67 2.68 3.34 2 3 C2 2.34 2 1.68 2 1 C1.34 0.67 0.68 0.34 0 0 Z " fill="#327272" transform="translate(165,39)"/>
<path d="M0 0 C0.99 0.33 1.98 0.66 3 1 C1.60667426 4.36720387 0.0210714 5.9859524 -3 8 C-3.75 6.25 -3.75 6.25 -4 4 C-2.0625 1.75 -2.0625 1.75 0 0 Z " fill="#335F6A" transform="translate(224,226)"/>
<path d="M0 0 C0.33 0 0.66 0 1 0 C2.33257403 11.52164009 2.33257403 11.52164009 1 17 C0.34 17 -0.32 17 -1 17 C-1.07482036 13.10934107 -0.96813743 9.75153255 0 6 C0.03845443 4.00036972 0.04544281 1.99948367 0 0 Z " fill="#296F7B" transform="translate(255,127)"/>
<path d="M0 0 C0.99 0.33 1.98 0.66 3 1 C3 1.99 3 2.98 3 4 C2.34 4 1.68 4 1 4 C0.67 4.99 0.34 5.98 0 7 C-2.86724686 6.42655063 -3.8614515 6.1385485 -6 4 C-4.02 3.67 -2.04 3.34 0 3 C0 2.01 0 1.02 0 0 Z " fill="#3F5D6A" transform="translate(272,68)"/>
<path d="M0 0 C0.33 0.66 0.66 1.32 1 2 C-2.40340307 4.09440189 -5.04437178 4.25797575 -9 4 C-9.66 3.67 -10.32 3.34 -11 3 C-11 2.34 -11 1.68 -11 1 C-5.555 0.505 -5.555 0.505 0 0 Z " fill="#37555E" transform="translate(203,48)"/>
<path d="M0 0 C0.33 0 0.66 0 1 0 C1.22084624 6.09781001 1.01167675 11.21642935 -1 17 C-2.0625 15.1875 -2.0625 15.1875 -3 13 C-2.67 12.01 -2.34 11.02 -2 10 C-1.62775582 8.27463463 -1.2749994 6.54499691 -0.9375 4.8125 C-0.76089844 3.91144531 -0.58429688 3.01039062 -0.40234375 2.08203125 C-0.26957031 1.39496094 -0.13679688 0.70789063 0 0 Z " fill="#297373" transform="translate(295,25)"/>
<path d="M0 0 C1.32 0 2.64 0 4 0 C4.33 1.32 4.66 2.64 5 4 C3.02 5.32 1.04 6.64 -1 8 C-1.33 7.34 -1.66 6.68 -2 6 C-1.34 5.01 -0.68 4.02 0 3 C0 2.01 0 1.02 0 0 Z " fill="#49686F" transform="translate(227,27)"/>
<path d="M0 0 C1.32 0.33 2.64 0.66 4 1 C3.01 3.31 2.02 5.62 1 8 C-0.5 6.6875 -0.5 6.6875 -2 5 C-2 4.01 -2 3.02 -2 2 C-1.34 2 -0.68 2 0 2 C0 1.34 0 0.68 0 0 Z " fill="#375665" transform="translate(31,231)"/>
<path d="M0 0 C0.66 0 1.32 0 2 0 C3.85776765 3.13498292 4.20140476 5.37471432 4 9 C3.34 9 2.68 9 2 9 C1.71125 8.360625 1.4225 7.72125 1.125 7.0625 C0.17176549 4.84793921 0.17176549 4.84793921 -2 4 C-2 3.34 -2 2.68 -2 2 C-1.34 2 -0.68 2 0 2 C0 1.34 0 0.68 0 0 Z " fill="#415D77" transform="translate(246,102)"/>
<path d="M0 0 C2.76262553 0.3810518 3.84143894 0.83597132 5.8125 2.875 C6.204375 3.57625 6.59625 4.2775 7 5 C6.67 5.99 6.34 6.98 6 8 C6 7.34 6 6.68 6 6 C4.35 6 2.7 6 1 6 C0.67 4.02 0.34 2.04 0 0 Z " fill="#3A7073" transform="translate(287,11)"/>
<path d="M0 0 C0.99 0.33 1.98 0.66 3 1 C2.40138258 3.35171131 1.73075648 5.6859378 1 8 C0.01 8.495 0.01 8.495 -1 9 C-1 8.34 -1 7.68 -1 7 C-1.66 7 -2.32 7 -3 7 C-3 6.34 -3 5.68 -3 5 C-2.34 5 -1.68 5 -1 5 C-0.67 3.35 -0.34 1.7 0 0 Z " fill="#385869" transform="translate(26,240)"/>
<path d="M0 0 C1.65 0.33 3.3 0.66 5 1 C4.67 2.32 4.34 3.64 4 5 C2.35 4.67 0.7 4.34 -1 4 C-0.67 2.68 -0.34 1.36 0 0 Z " fill="#DCDADD" transform="translate(108,167)"/>
<path d="M0 0 C1.98 0.495 1.98 0.495 4 1 C3.67 2.65 3.34 4.3 3 6 C1.68 5.67 0.36 5.34 -1 5 C-0.67 3.35 -0.34 1.7 0 0 Z " fill="#E1E0E2" transform="translate(164,109)"/>
<path d="M0 0 C1.65 0.33 3.3 0.66 5 1 C4.67 2.32 4.34 3.64 4 5 C2.35 4.67 0.7 4.34 -1 4 C-0.67 2.68 -0.34 1.36 0 0 Z " fill="#09B2AE" transform="translate(140,71)"/>
<path d="M0 0 C0.66 0.33 1.32 0.66 2 1 C-0.31 3.31 -2.62 5.62 -5 8 C-4.01 9.485 -4.01 9.485 -3 11 C-4.32 10.67 -5.64 10.34 -7 10 C-7 6 -7 6 -5.46875 4.296875 C-4.8190625 3.78640625 -4.169375 3.2759375 -3.5 2.75 C-2.8503125 2.22921875 -2.200625 1.7084375 -1.53125 1.171875 C-0.77328125 0.59179688 -0.77328125 0.59179688 0 0 Z " fill="#38908E" transform="translate(206,64)"/>
<path d="M0 0 C0.66 1.32 1.32 2.64 2 4 C0.35 4.66 -1.3 5.32 -3 6 C-3.103125 5.360625 -3.20625 4.72125 -3.3125 4.0625 C-3.539375 3.381875 -3.76625 2.70125 -4 2 C-4.99 1.67 -5.98 1.34 -7 1 C-4 0 -4 0 0 0 Z " fill="#486470" transform="translate(100,48)"/>
<path d="M0 0 C0 0.99 0 1.98 0 3 C-3.375 3.625 -3.375 3.625 -7 4 C-7.66 3.34 -8.32 2.68 -9 2 C-3.375 -1.125 -3.375 -1.125 0 0 Z " fill="#4E6E79" transform="translate(136,259)"/>
<path d="M0 0 C1.65 0.33 3.3 0.66 5 1 C3.68 3.31 2.36 5.62 1 8 C0.01 7.01 -0.98 6.02 -2 5 C-1.67 4.01 -1.34 3.02 -1 2 C-0.01 2.33 0.98 2.66 2 3 C2 2.34 2 1.68 2 1 C1.34 0.67 0.68 0.34 0 0 Z " fill="#3D596A" transform="translate(43,214)"/>
<path d="M0 0 C1.32 0.33 2.64 0.66 4 1 C3.34 3.64 2.68 6.28 2 9 C1.34 9 0.68 9 0 9 C0 6.03 0 3.06 0 0 Z " fill="#4D6E7A" transform="translate(46,202)"/>
<path d="M0 0 C0.99 0 1.98 0 3 0 C2.67 2.31 2.34 4.62 2 7 C1.01 7 0.02 7 -1 7 C-1.04254356 5.00045254 -1.04080783 2.99958364 -1 1 C-0.67 0.67 -0.34 0.34 0 0 Z " fill="#358E8C" transform="translate(214,154)"/>
<path d="M0 0 C0.33 0.66 0.66 1.32 1 2 C1.66 2 2.32 2 3 2 C2.45773019 5.79588866 0.79872437 7.47211993 -2 10 C-2.33 9.34 -2.66 8.68 -3 8 C-2.34 8 -1.68 8 -1 8 C-0.67 6.68 -0.34 5.36 0 4 C-1.32 3.67 -2.64 3.34 -4 3 C-2.68 2.01 -1.36 1.02 0 0 Z " fill="#4B6674" transform="translate(55,83)"/>
<path d="M0 0 C2.475 0.495 2.475 0.495 5 1 C4 4 4 4 2 5 C1.34227572 8.02934491 1.34227572 8.02934491 1 11 C0.67 11 0.34 11 0 11 C0 7.37 0 3.74 0 0 Z " fill="#3D576D" transform="translate(6,278)"/>
<path d="M0 0 C0 0.66 0 1.32 0 2 C-0.66 2.66 -1.32 3.32 -2 4 C-2.33 4.99 -2.66 5.98 -3 7 C-3.66 6.67 -4.32 6.34 -5 6 C-5.625 2.9375 -5.625 2.9375 -6 0 C-3.50907189 -1.24546405 -2.58919267 -0.7767578 0 0 Z " fill="#385862" transform="translate(284,56)"/>
<path d="M0 0 C0.66 0.33 1.32 0.66 2 1 C1.34 2.32 0.68 3.64 0 5 C0.99 5.33 1.98 5.66 3 6 C0.6875 6.6875 0.6875 6.6875 -2 7 C-3.8125 5.5625 -3.8125 5.5625 -5 4 C-3.35 2.68 -1.7 1.36 0 0 Z " fill="#276974" transform="translate(221,31)"/>
<path d="M0 0 C1.98 0.99 3.96 1.98 6 3 C6 3.33 6 3.66 6 4 C4.35 4 2.7 4 1 4 C1 4.66 1 5.32 1 6 C1.66 6 2.32 6 3 6 C3 6.99 3 7.98 3 9 C2.34 9 1.68 9 1 9 C-0.4783226 6.04335481 -0.06032783 3.25770263 0 0 Z " fill="#3B5969" transform="translate(55,286)"/>
<path d="M0 0 C0.33 0.66 0.66 1.32 1 2 C-0.32 2.99 -1.64 3.98 -3 5 C-3 4.01 -3 3.02 -3 2 C-2.01 1.34 -1.02 0.68 0 0 Z M-6 4 C-5.34 4.33 -4.68 4.66 -4 5 C-4 5.99 -4 6.98 -4 8 C-5.65 7.67 -7.3 7.34 -9 7 C-8.01 6.01 -7.02 5.02 -6 4 Z " fill="#4C6B77" transform="translate(64,279)"/>
<path d="M0 0 C1.61949011 2.57213134 2.04408751 3.67669159 1.625 6.75 C1.41875 7.4925 1.2125 8.235 1 9 C-0.32 8.67 -1.64 8.34 -3 8 C-1.125 2.25 -1.125 2.25 0 0 Z " fill="#2B696E" transform="translate(15,255)"/>
<path d="M0 0 C0.66 1.32 1.32 2.64 2 4 C1.01 4 0.02 4 -1 4 C-1 4.66 -1 5.32 -1 6 C-3.51083114 4.74458443 -3.87125446 3.49936512 -5 1 C-3.35 0.67 -1.7 0.34 0 0 Z " fill="#476876" transform="translate(48,195)"/>
<path d="M0 0 C4 2 4 2 5.25 4.625 C5.4975 5.40875 5.745 6.1925 6 7 C5.34 7 4.68 7 4 7 C3.67 7.99 3.34 8.98 3 10 C2.01 6.7 1.02 3.4 0 0 Z " fill="#3E7B7B" transform="translate(35,180)"/>
<path d="M0 0 C1.32 0.33 2.64 0.66 4 1 C4 2.65 4 4.3 4 6 C2.68 6 1.36 6 0 6 C0 4.02 0 2.04 0 0 Z " fill="#268684" transform="translate(80,176)"/>
<path d="M0 0 C0.99 0 1.98 0 3 0 C3.33 0.66 3.66 1.32 4 2 C4.99 2 5.98 2 7 2 C6.01 3.485 6.01 3.485 5 5 C2.375 5.1875 2.375 5.1875 0 5 C0 3.35 0 1.7 0 0 Z " fill="#465F7C" transform="translate(164,40)"/>
<path d="M0 0 C-0.99 0.33 -1.98 0.66 -3 1 C-3 1.99 -3 2.98 -3 4 C-7.455 3.01 -7.455 3.01 -12 2 C-12 1.67 -12 1.34 -12 1 C-7.9472484 0.01751476 -4.16138263 -0.08159574 0 0 Z " fill="#467585" transform="translate(164,38)"/>
<path d="M0 0 C0.66 0.33 1.32 0.66 2 1 C1.814375 1.763125 1.62875 2.52625 1.4375 3.3125 C0.77180827 6.08967375 0.77180827 6.08967375 2 9 C0.68 9.33 -0.64 9.66 -2 10 C-1.85950482 8.52031676 -1.71245174 7.04125484 -1.5625 5.5625 C-1.48128906 4.73878906 -1.40007812 3.91507813 -1.31640625 3.06640625 C-1 1 -1 1 0 0 Z " fill="#4D6775" transform="translate(170,251)"/>
<path d="M0 0 C0.99 0.33 1.98 0.66 3 1 C3 2.65 3 4.3 3 6 C1.68 6 0.36 6 -1 6 C-1.042721 4.33388095 -1.04063832 2.66617115 -1 1 C-0.67 0.67 -0.34 0.34 0 0 Z " fill="#09B2AD" transform="translate(69,130)"/>
<path d="M0 0 C0.92538169 3.70152678 1.08174162 4.63458162 0 8 C0.66 8 1.32 8 2 8 C2 8.99 2 9.98 2 11 C0.35 10.67 -1.3 10.34 -3 10 C-2.01 6.7 -1.02 3.4 0 0 Z " fill="#4F6E79" transform="translate(285,35)"/>
<path d="M0 0 C0.928125 0.165 1.85625 0.33 2.8125 0.5 C5.95621353 1.07748388 5.95621353 1.07748388 9 1 C7.35 2.65 5.7 4.3 4 6 C3.34 5.67 2.68 5.34 2 5 C2.33 4.34 2.66 3.68 3 3 C2.01 2.01 1.02 1.02 0 0 Z " fill="#286B6F" transform="translate(66,282)"/>
<path d="M0 0 C1.32 0.99 2.64 1.98 4 3 C0.7 3.66 -2.6 4.32 -6 5 C-5.67 4.34 -5.34 3.68 -5 3 C-4.34 3 -3.68 3 -3 3 C-2.67 2.34 -2.34 1.68 -2 1 C-1.34 0.67 -0.68 0.34 0 0 Z " fill="#2D727B" transform="translate(177,256)"/>
<path d="M0 0 C0.66 0.33 1.32 0.66 2 1 C-0.97 3.97 -3.94 6.94 -7 10 C-7.66 9.34 -8.32 8.68 -9 8 C-6.03 5.36 -3.06 2.72 0 0 Z " fill="#5A7681" transform="translate(218,223)"/>
<path d="M0 0 C0.66 0 1.32 0 2 0 C2.66 1.65 3.32 3.3 4 5 C2.68 5 1.36 5 0 5 C-0.33 5.99 -0.66 6.98 -1 8 C-1.66 7.67 -2.32 7.34 -3 7 C-2.505 6.401875 -2.01 5.80375 -1.5 5.1875 C0.28276418 3.02970006 0.28276418 3.02970006 0 0 Z " fill="#4E6573" transform="translate(39,217)"/>
<path d="M0 0 C1.98 0 3.96 0 6 0 C6.33 1.98 6.66 3.96 7 6 C6.01 6.495 6.01 6.495 5 7 C4.34 6.01 3.68 5.02 3 4 C2.01 3.34 1.02 2.68 0 2 C0 1.34 0 0.68 0 0 Z " fill="#405965" transform="translate(247,119)"/>
<path d="M0 0 C1.98 0 3.96 0 6 0 C6 0.99 6 1.98 6 3 C4.35 3 2.7 3 1 3 C1 3.66 1 4.32 1 5 C0.34 4.67 -0.32 4.34 -1 4 C-0.67 2.68 -0.34 1.36 0 0 Z " fill="#487072" transform="translate(132,39)"/>
<path d="M0 0 C1.32 0.66 2.64 1.32 4 2 C3.01 2.66 2.02 3.32 1 4 C1 4.99 1 5.98 1 7 C0.34 7 -0.32 7 -1 7 C-1 6.01 -1 5.02 -1 4 C-1.99 3.67 -2.98 3.34 -4 3 C-2.68 2.01 -1.36 1.02 0 0 Z " fill="#2E6171" transform="translate(232,23)"/>
<path d="M0 0 C1.65 0.33 3.3 0.66 5 1 C5 1.66 5 2.32 5 3 C3.02 3.33 1.04 3.66 -1 4 C-0.67 2.68 -0.34 1.36 0 0 Z " fill="#238582" transform="translate(149,223)"/>
<path d="M0 0 C0.33 0 0.66 0 1 0 C0.25 7.625 0.25 7.625 -2 11 C-2.66 9.68 -3.32 8.36 -4 7 C-3.34 6.67 -2.68 6.34 -2 6 C-1.27306096 4.02111039 -0.60183749 2.02045442 0 0 Z " fill="#3B7A7F" transform="translate(253,179)"/>
<path d="M0 0 C0.66 0 1.32 0 2 0 C2.33 0.99 2.66 1.98 3 3 C3.66 3.33 4.32 3.66 5 4 C5.625 6.5625 5.625 6.5625 6 9 C5.34 8.67 4.68 8.34 4 8 C4 7.01 4 6.02 4 5 C3.01 5.33 2.02 5.66 1 6 C0 5 0 5 -0.0625 2.4375 C-0.041875 1.633125 -0.02125 0.82875 0 0 Z " fill="#496F74" transform="translate(34,160)"/>
<path d="M0 0 C0.99 0.33 1.98 0.66 3 1 C2.34 2.65 1.68 4.3 1 6 C-0.65 5.67 -2.3 5.34 -4 5 C-4 4.34 -4 3.68 -4 3 C-3.01 2.67 -2.02 2.34 -1 2 C-0.67 1.34 -0.34 0.68 0 0 Z " fill="#465F69" transform="translate(47,98)"/>
<path d="M0 0 C0.33 0.66 0.66 1.32 1 2 C0.34 2 -0.32 2 -1 2 C-1.33 3.98 -1.66 5.96 -2 8 C-2.33 7.01 -2.66 6.02 -3 5 C-5.00016466 3.79117904 -5.00016466 3.79117904 -7 3 C-4.69 2.01 -2.38 1.02 0 0 Z " fill="#4E6D79" transform="translate(43,292)"/>
<path d="M0 0 C0.99 0 1.98 0 3 0 C2.67 1.32 2.34 2.64 2 4 C0.68 4.33 -0.64 4.66 -2 5 C-1.125 1.125 -1.125 1.125 0 0 Z " fill="#0CAEAA" transform="translate(189,200)"/>
<path d="M0 0 C2.12046792 3.53411321 2.53199289 6.94393835 3 11 C0 9 0 9 -0.75 6.625 C-0.99286095 4.07496 -0.8028831 2.40864929 0 0 Z " fill="#2A7F7F" transform="translate(251,111)"/>
<path d="M0 0 C3.37462715 0.54723683 5.08235 1.0549 8 3 C6.329375 3.2165625 6.329375 3.2165625 4.625 3.4375 C1.17857953 3.78372035 1.17857953 3.78372035 -1 5 C-0.67 3.35 -0.34 1.7 0 0 Z " fill="#3D5A6D" transform="translate(282,45)"/>
<path d="M0 0 C0.33 0.66 0.66 1.32 1 2 C-1.8125 2.6875 -1.8125 2.6875 -5 3 C-6.875 1.5625 -6.875 1.5625 -8 0 C-5.09660535 -1.45169732 -3.09125158 -0.72348441 0 0 Z " fill="#2B6C6E" transform="translate(183,43)"/>
<path d="M0 0 C0.66 0.33 1.32 0.66 2 1 C0.8125 3.4375 0.8125 3.4375 -1 6 C-3.6875 6.8125 -3.6875 6.8125 -6 7 C-4.60667426 3.63279613 -3.0210714 2.0140476 0 0 Z " fill="#4B6C6C" transform="translate(215,36)"/>
<path d="M0 0 C0 0.66 0 1.32 0 2 C0.66 2.33 1.32 2.66 2 3 C0.35 3.66 -1.3 4.32 -3 5 C-3.33 3.68 -3.66 2.36 -4 1 C-2 0 -2 0 0 0 Z " fill="#395B69" transform="translate(257,11)"/>
<path d="M0 0 C2.1875 0.3125 2.1875 0.3125 4 1 C3.2575 1.680625 3.2575 1.680625 2.5 2.375 C0.77390663 3.87635519 0.77390663 3.87635519 1 6 C0.01 6 -0.98 6 -2 6 C-2.33 5.01 -2.66 4.02 -3 3 C-1.75 1.4375 -1.75 1.4375 0 0 Z " fill="#3F6A75" transform="translate(278,6)"/>
<path d="M0 0 C0.66 0 1.32 0 2 0 C1.7452486 1.31571603 1.47065859 2.62760376 1.1875 3.9375 C1.03667969 4.66839844 0.88585937 5.39929688 0.73046875 6.15234375 C0.48941406 6.76207031 0.24835938 7.37179688 0 8 C-0.99 8.33 -1.98 8.66 -3 9 C-2.44271087 5.65626525 -1.64826111 2.96687001 0 0 Z " fill="#4B6976" transform="translate(236,198)"/>
<path d="M0 0 C0.33 0.99 0.66 1.98 1 3 C-0.65 4.65 -2.3 6.3 -4 8 C-4.66 7.67 -5.32 7.34 -6 7 C-4.02 4.69 -2.04 2.38 0 0 Z " fill="#7EB7B6" transform="translate(226,104)"/>
<path d="M0 0 C0.99 0 1.98 0 3 0 C3.33 1.32 3.66 2.64 4 4 C3.01 4.33 2.02 4.66 1 5 C0.34 4.67 -0.32 4.34 -1 4 C-0.67 2.68 -0.34 1.36 0 0 Z " fill="#3A5563" transform="translate(93,50)"/>
<path d="M0 0 C-0.8125 1.9375 -0.8125 1.9375 -2 4 C-2.99 4.33 -3.98 4.66 -5 5 C-5.99 4.34 -6.98 3.68 -8 3 C-2.25 0 -2.25 0 0 0 Z " fill="#375C6D" transform="translate(204,50)"/>
<path d="M0 0 C2 1.3125 2 1.3125 4 3 C4 6 4 6 3 9 C1.68 6.36 0.36 3.72 -1 1 C-0.67 0.67 -0.34 0.34 0 0 Z " fill="#2F5C64" transform="translate(283,48)"/>
<path d="M0 0 C1.9375 0.375 1.9375 0.375 4 1 C4.33 1.66 4.66 2.32 5 3 C0.545 3.495 0.545 3.495 -4 4 C-4 3.34 -4 2.68 -4 2 C-2.68 2 -1.36 2 0 2 C0 1.34 0 0.68 0 0 Z " fill="#486579" transform="translate(109,255)"/>
<path d="M0 0 C1 2 1 2 0.0625 5.125 C-0.288125 6.07375 -0.63875 7.0225 -1 8 C-1.66 8 -2.32 8 -3 8 C-3.36923077 3.44615385 -3.36923077 3.44615385 -1.5 1.1875 C-1.005 0.795625 -0.51 0.40375 0 0 Z " fill="#447272" transform="translate(37,133)"/>
<path d="M0 0 C1.5625 1.8125 1.5625 1.8125 3 4 C2.67 4.99 2.34 5.98 2 7 C0.68 7 -0.64 7 -2 7 C-1.34 4.69 -0.68 2.38 0 0 Z " fill="#42767A" transform="translate(42,101)"/>
<path d="M0 0 C0.66 0 1.32 0 2 0 C2.33 1.32 2.66 2.64 3 4 C3.66 3.67 4.32 3.34 5 3 C5 3.99 5 4.98 5 6 C4.01 6.33 3.02 6.66 2 7 C1.01 5.02 0.02 3.04 -1 1 C-0.67 0.67 -0.34 0.34 0 0 Z " fill="#4C616F" transform="translate(266,76)"/>
<path d="M0 0 C0.99 0.33 1.98 0.66 3 1 C3.6875 3.0625 3.6875 3.0625 4 5 C2.68 5.33 1.36 5.66 0 6 C-1 3 -1 3 0 0 Z " fill="#425E64" transform="translate(245,15)"/>
</svg>
